<svg xmlns="http://www.w3.org/2000/svg" xmlns:xlink="http://www.w3.org/1999/xlink" viewBox="0 0 2843.6186 1617.13823"><defs><style>.cls-1{fill:#e24040;}.cls-1,.cls-2,.cls-3,.cls-4{stroke:#000;stroke-miterlimit:10;stroke-width:25px;}.cls-2{fill:url(#Dégradé_sans_nom_9);}.cls-3{fill:#fff;}.cls-4{fill:#4dc3dc;}</style><linearGradient id="Dégradé_sans_nom_9" x1="146.12262" y1="1004.592" x2="129.01371" y2="705.18606" gradientUnits="userSpaceOnUse"><stop offset="0.20776" stop-color="#fff"/><stop offset="0.4463" stop-color="#f3b2b2"/><stop offset="0.71412" stop-color="#e76060"/><stop offset="0.83699" stop-color="#e24040"/></linearGradient></defs><title>logo</title><g id="t"><path id="T-2" data-name="T" class="cls-1" d="M309.55554,503.55554,927.33331,385.77777q18.57158,81.8525,37.14313,163.705,11.42844,50.36974,22.85687,100.73944-70,12.2222-140,24.44446l77.77777,300L614,1036.88892,536.22223,741.33331,378.44446,768Z" transform="translate(-61.34916 -290.58981)"/></g><g id="a"><path id="A-2" data-name="A" class="cls-1" d="M1616.18811,833.64288c-50.77551-224.01056-44.44336-268.36456-110.95056-347.01916-78.08179-92.34345-464.34509-56.61817-521.81726,84.48877a10.30759,10.30759,0,0,0-.69165,2.75561c4.60467,76.35413,22.38244,118.57636,35.71582,127.46521,142.22217-88.88885,220-102.22223,266.45788-44.84881l-.00268.00238c-26.41406.84875-175.34412-41.82019-250.89966,124.84643-8.25171,45.38459,1.74084,79.51,18.35071,103.60974,21.33288,30.95258,52.79321,40.84,66.09375,45.27918,98.44885,32.8584,202.012-52.61841,213.33337-62.22223-.85754,5.28406-3.053,22.27,3.97461,29.59406,4.0166,4.18591,10.25379,2.48236,12.1189,2.31683,30.11877-2.67328,105.50488-19.06513,157.82446-29.94861,28.509-5.93042,55.98938-12.5675,102.85388-23.99365A10.34152,10.34152,0,0,0,1616.18811,833.64288Zm-394.31677-50.46466c-5.298-19.66925,27.08911-58.45544,74.13855-48.47528,3.57715,15.68317,9.95617,49.90753,14.25744,64.15845C1250.38611,815.97028,1225.7876,797.7179,1221.87134,783.17822Z" transform="translate(-61.34916 -290.58981)"/></g><g id="p"><path id="P-2" data-name="P" class="cls-1" d="M2271.21792,473.79207c-14.73291-76.99011-205.307-275.16834-403.48523-101.22772-5.641-16.64618-3.11987-26.18482-8.55444-39.92084-84.11877,17.10895-144,28.51489-297.98022,59.88122,52.75244,205.30689,99.802,376.396,152.55444,563.16828,135.44556-25.18811,203.88122-38.97028,302.25745-54.17822-19.96033-73.66333-27.56434-87.92078-44.198-136.87128C2338.70279,778.901,2280.47036,522.14357,2271.21792,473.79207ZM1931.89114,603.17818q-11.22766-36.35642-22.45544-72.71289c17.78625-17.72791,43.53393-22.72773,64.15381-13.12036,16.63317,7.74981,31.6101,25.78741,29.94519,44.13024C2003.654,590.34651,1971.13894,608.6559,1931.89114,603.17818Z" transform="translate(-61.34916 -290.58981)"/></g><g id="apostrophe"><polygon id="apostrophe-2" data-name="apostrophe" class="cls-2" points="19.572 762.767 241.987 709.41 250.542 919.955 135.057 953.103 19.572 762.767"/></g><g id="fleche"><path id="fleche-2" data-name="fleche" class="cls-3" d="M184.64357,1284.32678c72-22.09906,91.96039-27.802,164.67326-47.04956l-14.9703,98.37622c143.28713,250.21785,1291.72278,485.46537,2087.99991-283.72278,7.35971-6.30826-121.188-39.20789-344.31665-9.98022C2259.81188,882.9802,2661.87129,717.59406,2880.01,739.69305c42.0593,216-22.09912,439.8416-196.75269,664.39606,5.34664-105.50495,3.9209-162.89109-59.16821-246.65344C2472.9604,1596.56436,841.198,2156.88119,263.77228,1354.901,239.53465,1336.36634,233.83168,1319.25743,184.64357,1284.32678Z" transform="translate(-61.34916 -290.58981)"/></g><g id="n"><path id="N-2" data-name="N" class="cls-3" d="M849.7525,1332.08911C823.61386,1122.505,812.68,1139.86377,789.62207,1143.5387c-12.9389,4.27318-18.459,10.80783,23.0611,196.15442-9.0297,10.45539-188.11278,34.41957-200.07923,29.46533-10.45543-3.32677-79.00988-274.099-75.08911-286.57434,99.54389-16.69068,125.83234-20.231,212.43567-32.792,1.42572,13.54456,3.55206,21.72547,5.70294,38.495,42.14255-40.62974,79.10277-53.464,113.73889-60.1778a42.82175,42.82175,0,0,1,7.798-.76681c11.44661-.09594,42.59106,1.53765,75.92852,19.59805,52.87506,28.64478,91.02191,130.94336,81.98016,260.19812C1029.396,1313.55446,854.0297,1336.84158,849.7525,1332.08911Z" transform="translate(-61.34916 -290.58981)"/></g><g id="s"><path id="S-2" data-name="S" class="cls-4" d="M1569.03955,1117.51489c-39.20788,46.33655-84.11876,84.11877-120.47522,113.34644-55.1127-98.16949-101.03764-98.03068-119.389-92.25954a12.00334,12.00334,0,0,0-7.11239,16.90289c18.03626,35.25642,144.21378,82.99734,144.09454,179.0221-.05795,46.66554-30.66489,87.61092-74.77517,102.84113-117.69085,40.63581-338.07266-33.43847-431.13486-105.99169,38.49507-42.05939,85.54458-91.96038,124.03961-124.75244,62.83789,105.31161,101.84126,106.77139,118.39443,98.97861a11.794,11.794,0,0,0,5.49554-15.88782c-17.63738-35.551-128.44623-78.41632-106.51438-185.33176,13.47357-65.68223,68.793-114.73494,135.51181-121.39062C1359.64256,970.77511,1519.31061,1060.94358,1569.03955,1117.51489Z" transform="translate(-61.34916 -290.58981)"/></g><g id="l"><polygon id="L-2" data-name="L" class="cls-4" points="1549.75 814.806 1749.354 880.39 1571.136 1276.747 1367.255 1211.163 1549.75 814.806"/></g><g id="i"><path id="I-trait" class="cls-4" d="M1829.23767,1262.94055c56.67322,62.01985,129.38609,78.05945,202.099,64.15845-57.74261,134.24464-94.099,211.72278-146.49512,327.20788-95.16828-35.28708-135.802-48.11876-201.02966-70.57421C1743.69307,1451.13861,1784.32673,1360.24752,1829.23767,1262.94055Z" transform="translate(-61.34916 -290.58981)"/><ellipse id="I-point" class="cls-4" cx="1918.93892" cy="984.05672" rx="60.41584" ry="51.86139"/></g><g id="d"><path id="D-2" data-name="D" class="cls-4" d="M2349.9899,1333.51479q-9.75879,28.21654-22.12354,58.30761-6.48339,15.67017-13.16357,30.44483c-109.95325-78.918-252.276-39.72876-298.21765,50.01977-35.81629,69.96851-16.59388,205.30713,62.97045,234.416q147.56433,48.65333,295.12854,97.30688,90.3567-200.495,180.71289-400.99023C2467.68081,1375.97353,2429.1188,1361.31679,2349.9899,1333.51479Zm-116.55433,282.29712c-33.50488-8.198-51.697-36.79786-41.70288-57.74268,9.8711-20.68726,47.97718-24.94653,69.36316-5.34253C2248.1542,1578.83876,2243.77237,1591.21779,2233.43557,1615.81191Z" transform="translate(-61.34916 -290.58981)"/></g><g id="e"><path id="E-2" data-name="E" class="cls-4" d="M2671.85147,1538.82179c-116.43579-7.36633-214.14209,118.36048-198.17822,203.88123,19.96044,106.93066,226.69311,196.03955,373.54467,129.74243,4.75244-2.37622,19.21973-56.37463,19.96045-59.8811-84.11889,16.396-150.416,3.56433-181.78222-67.7229,81.26709,30.65356,101.22754,37.06945,186.772,59.88134C2937.75259,1652.16835,2826.37954,1548.598,2671.85147,1538.82179Zm101.22778,163.96033c-24.23779-8.55444-45.62378-14.73267-73.66357-25.66333-.54248-12.91431,28.09546-33.30395,53.91186-24.21655C2779.0253,1661.94765,2781.53189,1693.01869,2773.07925,1702.78212Zm-101.22778-163.96033c-116.43579-7.36633-214.14209,118.36048-198.17822,203.88123,19.96044,106.93066,226.69311,196.03955,373.54467,129.74243,4.75244-2.37622,19.21973-56.37463,19.96045-59.8811-84.11889,16.396-150.416,3.56433-181.78222-67.7229,81.26709,30.65356,101.22754,37.06945,186.772,59.88134C2937.75259,1652.16835,2826.37954,1548.598,2671.85147,1538.82179Zm101.22778,163.96033c-24.23779-8.55444-45.62378-14.73267-73.66357-25.66333-.54248-12.91431,28.09546-33.30395,53.91186-24.21655C2779.0253,1661.94765,2781.53189,1693.01869,2773.07925,1702.78212Zm-101.22778-163.96033c-116.43579-7.36633-214.14209,118.36048-198.17822,203.88123,19.96044,106.93066,226.69311,196.03955,373.54467,129.74243,4.75244-2.37622,19.21973-56.37463,19.96045-59.8811-84.11889,16.396-150.416,3.56433-181.78222-67.7229,81.26709,30.65356,101.22754,37.06945,186.772,59.88134C2937.75259,1652.16835,2826.37954,1548.598,2671.85147,1538.82179Zm101.22778,163.96033c-24.23779-8.55444-45.62378-14.73267-73.66357-25.66333-.54248-12.91431,28.09546-33.30395,53.91186-24.21655C2779.0253,1661.94765,2781.53189,1693.01869,2773.07925,1702.78212Zm-101.22778-163.96033c-116.43579-7.36633-214.14209,118.36048-198.17822,203.88123,19.96044,106.93066,226.69311,196.03955,373.54467,129.74243,4.75244-2.37622,19.21973-56.37463,19.96045-59.8811-84.11889,16.396-150.416,3.56433-181.78222-67.7229,81.26709,30.65356,101.22754,37.06945,186.772,59.88134C2937.75259,1652.16835,2826.37954,1548.598,2671.85147,1538.82179Zm101.22778,163.96033c-24.23779-8.55444-45.62378-14.73267-73.66357-25.66333-.54248-12.91431,28.09546-33.30395,53.91186-24.21655C2779.0253,1661.94765,2781.53189,1693.01869,2773.07925,1702.78212Zm-101.22778-163.96033c-116.43579-7.36633-214.14209,118.36048-198.17822,203.88123,19.96044,106.93066,226.69311,196.03955,373.54467,129.74243,4.75244-2.37622,19.21973-56.37463,19.96045-59.8811-84.11889,16.396-150.416,3.56433-181.78222-67.7229,81.26709,30.65356,101.22754,37.06945,186.772,59.88134C2937.75259,1652.16835,2826.37954,1548.598,2671.85147,1538.82179Zm101.22778,163.96033c-24.23779-8.55444-45.62378-14.73267-73.66357-25.66333-.54248-12.91431,28.09546-33.30395,53.91186-24.21655C2779.0253,1661.94765,2781.53189,1693.01869,2773.07925,1702.78212Zm-101.22778-163.96033c-116.43579-7.36633-214.14209,118.36048-198.17822,203.88123,19.96044,106.93066,226.69311,196.03955,373.54467,129.74243,4.75244-2.37622,19.21973-56.37463,19.96045-59.8811-84.11889,16.396-150.416,3.56433-181.78222-67.7229,81.26709,30.65356,101.22754,37.06945,186.772,59.88134C2937.75259,1652.16835,2826.37954,1548.598,2671.85147,1538.82179Zm101.22778,163.96033c-24.23779-8.55444-45.62378-14.73267-73.66357-25.66333-.54248-12.91431,28.09546-33.30395,53.91186-24.21655C2779.0253,1661.94765,2781.53189,1693.01869,2773.07925,1702.78212Zm-101.22778-163.96033c-116.43579-7.36633-214.14209,118.36048-198.17822,203.88123,19.96044,106.93066,226.69311,196.03955,373.54467,129.74243,4.75244-2.37622,19.21973-56.37463,19.96045-59.8811-84.11889,16.396-150.416,3.56433-181.78222-67.7229,81.26709,30.65356,101.22754,37.06945,186.772,59.88134C2937.75259,1652.16835,2826.37954,1548.598,2671.85147,1538.82179Zm101.22778,163.96033c-24.23779-8.55444-45.62378-14.73267-73.66357-25.66333-.54248-12.91431,28.09546-33.30395,53.91186-24.21655C2779.0253,1661.94765,2781.53189,1693.01869,2773.07925,1702.78212Zm-101.22778-163.96033c-116.43579-7.36633-214.14209,118.36048-198.17822,203.88123,19.96044,106.93066,226.69311,196.03955,373.54467,129.74243,4.75244-2.37622,19.21973-56.37463,19.96045-59.8811-84.11889,16.396-150.416,3.56433-181.78222-67.7229,81.26709,30.65356,101.22754,37.06945,186.772,59.88134C2937.75259,1652.16835,2826.37954,1548.598,2671.85147,1538.82179Zm101.22778,163.96033c-24.23779-8.55444-45.62378-14.73267-73.66357-25.66333-.54248-12.91431,28.09546-33.30395,53.91186-24.21655C2779.0253,1661.94765,2781.53189,1693.01869,2773.07925,1702.78212Zm-101.22778-163.96033c-116.43579-7.36633-214.14209,118.36048-198.17822,203.88123,19.96044,106.93066,226.69311,196.03955,373.54467,129.74243,4.75244-2.37622,19.21973-56.37463,19.96045-59.8811-84.11889,16.396-150.416,3.56433-181.78222-67.7229,81.26709,30.65356,101.22754,37.06945,186.772,59.88134C2937.75259,1652.16835,2826.37954,1548.598,2671.85147,1538.82179Zm101.22778,163.96033c-24.23779-8.55444-45.62378-14.73267-73.66357-25.66333-.54248-12.91431,28.09546-33.30395,53.91186-24.21655C2779.0253,1661.94765,2781.53189,1693.01869,2773.07925,1702.78212Zm-101.22778-163.96033c-116.43579-7.36633-214.14209,118.36048-198.17822,203.88123,19.96044,106.93066,226.69311,196.03955,373.54467,129.74243,4.75244-2.37622,19.21973-56.37463,19.96045-59.8811-84.11889,16.396-150.416,3.56433-181.78222-67.7229,81.26709,30.65356,101.22754,37.06945,186.772,59.88134C2937.75259,1652.16835,2826.37954,1548.598,2671.85147,1538.82179Zm101.22778,163.96033c-24.23779-8.55444-45.62378-14.73267-73.66357-25.66333-.54248-12.91431,28.09546-33.30395,53.91186-24.21655C2779.0253,1661.94765,2781.53189,1693.01869,2773.07925,1702.78212Zm-101.22778-163.96033c-116.43579-7.36633-214.14209,118.36048-198.17822,203.88123,19.96044,106.93066,226.69311,196.03955,373.54467,129.74243,4.75244-2.37622,19.21973-56.37463,19.96045-59.8811-84.11889,16.396-150.416,3.56433-181.78222-67.7229,81.26709,30.65356,101.22754,37.06945,186.772,59.88134C2937.75259,1652.16835,2826.37954,1548.598,2671.85147,1538.82179Zm101.22778,163.96033c-24.23779-8.55444-45.62378-14.73267-73.66357-25.66333-.54248-12.91431,28.09546-33.30395,53.91186-24.21655C2779.0253,1661.94765,2781.53189,1693.01869,2773.07925,1702.78212Zm-101.22778-163.96033c-116.43579-7.36633-214.14209,118.36048-198.17822,203.88123,19.96044,106.93066,226.69311,196.03955,373.54467,129.74243,4.75244-2.37622,19.21973-56.37463,19.96045-59.8811-84.11889,16.396-150.416,3.56433-181.78222-67.7229,81.26709,30.65356,101.22754,37.06945,186.772,59.88134C2937.75259,1652.16835,2826.37954,1548.598,2671.85147,1538.82179Zm101.22778,163.96033c-24.23779-8.55444-45.62378-14.73267-73.66357-25.66333-.54248-12.91431,28.09546-33.30395,53.91186-24.21655C2779.0253,1661.94765,2781.53189,1693.01869,2773.07925,1702.78212Zm-101.22778-163.96033c-116.43579-7.36633-214.14209,118.36048-198.17822,203.88123,19.96044,106.93066,226.69311,196.03955,373.54467,129.74243,4.75244-2.37622,19.21973-56.37463,19.96045-59.8811-84.11889,16.396-150.416,3.56433-181.78222-67.7229,81.26709,30.65356,101.22754,37.06945,186.772,59.88134C2937.75259,1652.16835,2826.37954,1548.598,2671.85147,1538.82179Zm101.22778,163.96033c-24.23779-8.55444-45.62378-14.73267-73.66357-25.66333-.54248-12.91431,28.09546-33.30395,53.91186-24.21655C2779.0253,1661.94765,2781.53189,1693.01869,2773.07925,1702.78212Zm-101.22778-163.96033c-116.43579-7.36633-214.14209,118.36048-198.17822,203.88123,19.96044,106.93066,226.69311,196.03955,373.54467,129.74243,4.75244-2.37622,19.21973-56.37463,19.96045-59.8811-84.11889,16.396-150.416,3.56433-181.78222-67.7229,81.26709,30.65356,101.22754,37.06945,186.772,59.88134C2937.75259,1652.16835,2826.37954,1548.598,2671.85147,1538.82179Zm101.22778,163.96033c-24.23779-8.55444-45.62378-14.73267-73.66357-25.66333-.54248-12.91431,28.09546-33.30395,53.91186-24.21655C2779.0253,1661.94765,2781.53189,1693.01869,2773.07925,1702.78212Zm-101.22778-163.96033c-116.43579-7.36633-214.14209,118.36048-198.17822,203.88123,19.96044,106.93066,226.69311,196.03955,373.54467,129.74243,4.75244-2.37622,19.21973-56.37463,19.96045-59.8811-84.11889,16.396-150.416,3.56433-181.78222-67.7229,81.26709,30.65356,101.22754,37.06945,186.772,59.88134C2937.75259,1652.16835,2826.37954,1548.598,2671.85147,1538.82179Zm101.22778,163.96033c-24.23779-8.55444-45.62378-14.73267-73.66357-25.66333-.54248-12.91431,28.09546-33.30395,53.91186-24.21655C2779.0253,1661.94765,2781.53189,1693.01869,2773.07925,1702.78212Zm-101.22778-163.96033c-116.43579-7.36633-214.14209,118.36048-198.17822,203.88123,19.96044,106.93066,226.69311,196.03955,373.54467,129.74243,4.75244-2.37622,19.21973-56.37463,19.96045-59.8811-84.11889,16.396-150.416,3.56433-181.78222-67.7229,81.26709,30.65356,101.22754,37.06945,186.772,59.88134C2937.75259,1652.16835,2826.37954,1548.598,2671.85147,1538.82179Zm101.22778,163.96033c-24.23779-8.55444-45.62378-14.73267-73.66357-25.66333-.54248-12.91431,28.09546-33.30395,53.91186-24.21655C2779.0253,1661.94765,2781.53189,1693.01869,2773.07925,1702.78212Zm-101.22778-163.96033c-116.43579-7.36633-214.14209,118.36048-198.17822,203.88123,19.96044,106.93066,226.69311,196.03955,373.54467,129.74243,4.75244-2.37622,19.21973-56.37463,19.96045-59.8811-84.11889,16.396-150.416,3.56433-181.78222-67.7229,81.26709,30.65356,101.22754,37.06945,186.772,59.88134C2937.75259,1652.16835,2826.37954,1548.598,2671.85147,1538.82179Zm101.22778,163.96033c-24.23779-8.55444-45.62378-14.73267-73.66357-25.66333-.54248-12.91431,28.09546-33.30395,53.91186-24.21655C2779.0253,1661.94765,2781.53189,1693.01869,2773.07925,1702.78212Zm-101.22778-163.96033c-116.43579-7.36633-214.14209,118.36048-198.17822,203.88123,19.96044,106.93066,226.69311,196.03955,373.54467,129.74243,4.75244-2.37622,19.21973-56.37463,19.96045-59.8811-84.11889,16.396-150.416,3.56433-181.78222-67.7229,81.26709,30.65356,101.22754,37.06945,186.772,59.88134C2937.75259,1652.16835,2826.37954,1548.598,2671.85147,1538.82179Zm101.22778,163.96033c-24.23779-8.55444-45.62378-14.73267-73.66357-25.66333-.54248-12.91431,28.09546-33.30395,53.91186-24.21655C2779.0253,1661.94765,2781.53189,1693.01869,2773.07925,1702.78212Zm-101.22778-163.96033c-116.43579-7.36633-214.14209,118.36048-198.17822,203.88123,19.96044,106.93066,226.69311,196.03955,373.54467,129.74243,4.75244-2.37622,19.21973-56.37463,19.96045-59.8811-84.11889,16.396-150.416,3.56433-181.78222-67.7229,81.26709,30.65356,101.22754,37.06945,186.772,59.88134C2937.75259,1652.16835,2826.37954,1548.598,2671.85147,1538.82179Zm101.22778,163.96033c-24.23779-8.55444-45.62378-14.73267-73.66357-25.66333-.54248-12.91431,28.09546-33.30395,53.91186-24.21655C2779.0253,1661.94765,2781.53189,1693.01869,2773.07925,1702.78212Zm-101.22778-163.96033c-116.43579-7.36633-214.14209,118.36048-198.17822,203.88123,19.96044,106.93066,226.69311,196.03955,373.54467,129.74243,4.75244-2.37622,19.21973-56.37463,19.96045-59.8811-84.11889,16.396-150.416,3.56433-181.78222-67.7229,81.26709,30.65356,101.22754,37.06945,186.772,59.88134C2937.75259,1652.16835,2826.37954,1548.598,2671.85147,1538.82179Zm101.22778,163.96033c-24.23779-8.55444-45.62378-14.73267-73.66357-25.66333-.54248-12.91431,28.09546-33.30395,53.91186-24.21655C2779.0253,1661.94765,2781.53189,1693.01869,2773.07925,1702.78212Zm-101.22778-163.96033c-116.43579-7.36633-214.14209,118.36048-198.17822,203.88123,19.96044,106.93066,226.69311,196.03955,373.54467,129.74243,4.75244-2.37622,19.21973-56.37463,19.96045-59.8811-84.11889,16.396-150.416,3.56433-181.78222-67.7229,81.26709,30.65356,101.22754,37.06945,186.772,59.88134C2937.75259,1652.16835,2826.37954,1548.598,2671.85147,1538.82179Zm101.22778,163.96033c-24.23779-8.55444-45.62378-14.73267-73.66357-25.66333-.54248-12.91431,28.09546-33.30395,53.91186-24.21655C2779.0253,1661.94765,2781.53189,1693.01869,2773.07925,1702.78212Zm-101.22778-163.96033c-116.43579-7.36633-214.14209,118.36048-198.17822,203.88123,19.96044,106.93066,226.69311,196.03955,373.54467,129.74243,4.75244-2.37622,19.21973-56.37463,19.96045-59.8811-84.11889,16.396-150.416,3.56433-181.78222-67.7229,81.26709,30.65356,101.22754,37.06945,186.772,59.88134C2937.75259,1652.16835,2826.37954,1548.598,2671.85147,1538.82179Zm101.22778,163.96033c-24.23779-8.55444-45.62378-14.73267-73.66357-25.66333-.54248-12.91431,28.09546-33.30395,53.91186-24.21655C2779.0253,1661.94765,2781.53189,1693.01869,2773.07925,1702.78212Zm-101.22778-163.96033c-116.43579-7.36633-214.14209,118.36048-198.17822,203.88123,19.96044,106.93066,226.69311,196.03955,373.54467,129.74243,4.75244-2.37622,19.21973-56.37463,19.96045-59.8811-84.11889,16.396-150.416,3.56433-181.78222-67.7229,81.26709,30.65356,101.22754,37.06945,186.772,59.88134C2937.75259,1652.16835,2826.37954,1548.598,2671.85147,1538.82179Zm101.22778,163.96033c-24.23779-8.55444-45.62378-14.73267-73.66357-25.66333-.54248-12.91431,28.09546-33.30395,53.91186-24.21655C2779.0253,1661.94765,2781.53189,1693.01869,2773.07925,1702.78212Zm-101.22778-163.96033c-116.43579-7.36633-214.14209,118.36048-198.17822,203.88123,19.96044,106.93066,226.69311,196.03955,373.54467,129.74243,4.75244-2.37622,19.21973-56.37463,19.96045-59.8811-84.11889,16.396-150.416,3.56433-181.78222-67.7229,81.26709,30.65356,101.22754,37.06945,186.772,59.88134C2937.75259,1652.16835,2826.37954,1548.598,2671.85147,1538.82179Zm101.22778,163.96033c-24.23779-8.55444-45.62378-14.73267-73.66357-25.66333-.54248-12.91431,28.09546-33.30395,53.91186-24.21655C2779.0253,1661.94765,2781.53189,1693.01869,2773.07925,1702.78212Zm-101.22778-163.96033c-116.43579-7.36633-214.14209,118.36048-198.17822,203.88123,19.96044,106.93066,226.69311,196.03955,373.54467,129.74243,4.75244-2.37622,19.21973-56.37463,19.96045-59.8811-84.11889,16.396-150.416,3.56433-181.78222-67.7229,81.26709,30.65356,101.22754,37.06945,186.772,59.88134C2937.75259,1652.16835,2826.37954,1548.598,2671.85147,1538.82179Zm101.22778,163.96033c-24.23779-8.55444-45.62378-14.73267-73.66357-25.66333-.54248-12.91431,28.09546-33.30395,53.91186-24.21655C2779.0253,1661.94765,2781.53189,1693.01869,2773.07925,1702.78212Zm-101.22778-163.96033c-116.43579-7.36633-214.14209,118.36048-198.17822,203.88123,19.96044,106.93066,226.69311,196.03955,373.54467,129.74243,4.75244-2.37622,19.21973-56.37463,19.96045-59.8811-84.11889,16.396-150.416,3.56433-181.78222-67.7229,81.26709,30.65356,101.22754,37.06945,186.772,59.88134C2937.75259,1652.16835,2826.37954,1548.598,2671.85147,1538.82179Zm101.22778,163.96033c-24.23779-8.55444-45.62378-14.73267-73.66357-25.66333-.54248-12.91431,28.09546-33.30395,53.91186-24.21655C2779.0253,1661.94765,2781.53189,1693.01869,2773.07925,1702.78212Zm-101.22778-163.96033c-116.43579-7.36633-214.14209,118.36048-198.17822,203.88123,19.96044,106.93066,226.69311,196.03955,373.54467,129.74243,4.75244-2.37622,19.21973-56.37463,19.96045-59.8811-84.11889,16.396-150.416,3.56433-181.78222-67.7229,81.26709,30.65356,101.22754,37.06945,186.772,59.88134C2937.75259,1652.16835,2826.37954,1548.598,2671.85147,1538.82179Zm101.22778,163.96033c-24.23779-8.55444-45.62378-14.73267-73.66357-25.66333-.54248-12.91431,28.09546-33.30395,53.91186-24.21655C2779.0253,1661.94765,2781.53189,1693.01869,2773.07925,1702.78212Zm-101.22778-163.96033c-116.43579-7.36633-214.14209,118.36048-198.17822,203.88123,19.96044,106.93066,226.69311,196.03955,373.54467,129.74243,4.75244-2.37622,19.21973-56.37463,19.96045-59.8811-84.11889,16.396-150.416,3.56433-181.78222-67.7229,81.26709,30.65356,101.22754,37.06945,186.772,59.88134C2937.75259,1652.16835,2826.37954,1548.598,2671.85147,1538.82179Zm101.22778,163.96033c-24.23779-8.55444-45.62378-14.73267-73.66357-25.66333-.54248-12.91431,28.09546-33.30395,53.91186-24.21655C2779.0253,1661.94765,2781.53189,1693.01869,2773.07925,1702.78212Zm-101.22778-163.96033c-116.43579-7.36633-214.14209,118.36048-198.17822,203.88123,19.96044,106.93066,226.69311,196.03955,373.54467,129.74243,4.75244-2.37622,19.21973-56.37463,19.96045-59.8811-84.11889,16.396-150.416,3.56433-181.78222-67.7229,81.26709,30.65356,101.22754,37.06945,186.772,59.88134C2937.75259,1652.16835,2826.37954,1548.598,2671.85147,1538.82179Zm101.22778,163.96033c-24.23779-8.55444-45.62378-14.73267-73.66357-25.66333-.54248-12.91431,28.09546-33.30395,53.91186-24.21655C2779.0253,1661.94765,2781.53189,1693.01869,2773.07925,1702.78212Zm-101.22778-163.96033c-116.43579-7.36633-214.14209,118.36048-198.17822,203.88123,19.96044,106.93066,226.69311,196.03955,373.54467,129.74243,4.75244-2.37622,19.21973-56.37463,19.96045-59.8811-84.11889,16.396-150.416,3.56433-181.78222-67.7229,81.26709,30.65356,101.22754,37.06945,186.772,59.88134C2937.75259,1652.16835,2826.37954,1548.598,2671.85147,1538.82179Zm101.22778,163.96033c-24.23779-8.55444-45.62378-14.73267-73.66357-25.66333-.54248-12.91431,28.09546-33.30395,53.91186-24.21655C2779.0253,1661.94765,2781.53189,1693.01869,2773.07925,1702.78212Zm-101.22778-163.96033c-116.43579-7.36633-214.14209,118.36048-198.17822,203.88123,19.96044,106.93066,226.69311,196.03955,373.54467,129.74243,4.75244-2.37622,19.21973-56.37463,19.96045-59.8811-84.11889,16.396-150.416,3.56433-181.78222-67.7229,81.26709,30.65356,101.22754,37.06945,186.772,59.88134C2937.75259,1652.16835,2826.37954,1548.598,2671.85147,1538.82179Zm101.22778,163.96033c-24.23779-8.55444-45.62378-14.73267-73.66357-25.66333-.54248-12.91431,28.09546-33.30395,53.91186-24.21655C2779.0253,1661.94765,2781.53189,1693.01869,2773.07925,1702.78212Zm-101.22778-163.96033c-116.43579-7.36633-214.14209,118.36048-198.17822,203.88123,19.96044,106.93066,226.69311,196.03955,373.54467,129.74243,4.75244-2.37622,19.21973-56.37463,19.96045-59.8811-84.11889,16.396-150.416,3.56433-181.78222-67.7229,81.26709,30.65356,101.22754,37.06945,186.772,59.88134C2937.75259,1652.16835,2826.37954,1548.598,2671.85147,1538.82179Zm101.22778,163.96033c-24.23779-8.55444-45.62378-14.73267-73.66357-25.66333-.54248-12.91431,28.09546-33.30395,53.91186-24.21655C2779.0253,1661.94765,2781.53189,1693.01869,2773.07925,1702.78212Zm-101.22778-163.96033c-116.43579-7.36633-214.14209,118.36048-198.17822,203.88123,19.96044,106.93066,226.69311,196.03955,373.54467,129.74243,4.75244-2.37622,19.21973-56.37463,19.96045-59.8811-84.11889,16.396-150.416,3.56433-181.78222-67.7229,81.26709,30.65356,101.22754,37.06945,186.772,59.88134C2937.75259,1652.16835,2826.37954,1548.598,2671.85147,1538.82179Zm101.22778,163.96033c-24.23779-8.55444-45.62378-14.73267-73.66357-25.66333-.54248-12.91431,28.09546-33.30395,53.91186-24.21655C2779.0253,1661.94765,2781.53189,1693.01869,2773.07925,1702.78212Zm-101.22778-163.96033c-116.43579-7.36633-214.14209,118.36048-198.17822,203.88123,19.96044,106.93066,226.69311,196.03955,373.54467,129.74243,4.75244-2.37622,19.21973-56.37463,19.96045-59.8811-84.11889,16.396-150.416,3.56433-181.78222-67.7229,81.26709,30.65356,101.22754,37.06945,186.772,59.88134C2937.75259,1652.16835,2826.37954,1548.598,2671.85147,1538.82179Zm101.22778,163.96033c-24.23779-8.55444-45.62378-14.73267-73.66357-25.66333-.54248-12.91431,28.09546-33.30395,53.91186-24.21655C2779.0253,1661.94765,2781.53189,1693.01869,2773.07925,1702.78212Zm-101.22778-163.96033c-116.43579-7.36633-214.14209,118.36048-198.17822,203.88123,19.96044,106.93066,226.69311,196.03955,373.54467,129.74243,4.75244-2.37622,19.21973-56.37463,19.96045-59.8811-84.11889,16.396-150.416,3.56433-181.78222-67.7229,81.26709,30.65356,101.22754,37.06945,186.772,59.88134C2937.75259,1652.16835,2826.37954,1548.598,2671.85147,1538.82179Zm101.22778,163.96033c-24.23779-8.55444-45.62378-14.73267-73.66357-25.66333-.54248-12.91431,28.09546-33.30395,53.91186-24.21655C2779.0253,1661.94765,2781.53189,1693.01869,2773.07925,1702.78212Zm-101.22778-163.96033c-116.43579-7.36633-214.14209,118.36048-198.17822,203.88123,19.96044,106.93066,226.69311,196.03955,373.54467,129.74243,4.75244-2.37622,19.21973-56.37463,19.96045-59.8811-84.11889,16.396-150.416,3.56433-181.78222-67.7229,81.26709,30.65356,101.22754,37.06945,186.772,59.88134C2937.75259,1652.16835,2826.37954,1548.598,2671.85147,1538.82179Zm101.22778,163.96033c-24.23779-8.55444-45.62378-14.73267-73.66357-25.66333-.54248-12.91431,28.09546-33.30395,53.91186-24.21655C2779.0253,1661.94765,2781.53189,1693.01869,2773.07925,1702.78212Zm-101.22778-163.96033c-116.43579-7.36633-214.14209,118.36048-198.17822,203.88123,19.96044,106.93066,226.69311,196.03955,373.54467,129.74243,4.75244-2.37622,19.21973-56.37463,19.96045-59.8811-84.11889,16.396-150.416,3.56433-181.78222-67.7229,81.26709,30.65356,101.22754,37.06945,186.772,59.88134C2937.75259,1652.16835,2826.37954,1548.598,2671.85147,1538.82179Zm101.22778,163.96033c-24.23779-8.55444-45.62378-14.73267-73.66357-25.66333-.54248-12.91431,28.09546-33.30395,53.91186-24.21655C2779.0253,1661.94765,2781.53189,1693.01869,2773.07925,1702.78212Zm-101.22778-163.96033c-116.43579-7.36633-214.14209,118.36048-198.17822,203.88123,19.96044,106.93066,226.69311,196.03955,373.54467,129.74243,4.75244-2.37622,19.21973-56.37463,19.96045-59.8811-84.11889,16.396-150.416,3.56433-181.78222-67.7229,81.26709,30.65356,101.22754,37.06945,186.772,59.88134C2937.75259,1652.16835,2826.37954,1548.598,2671.85147,1538.82179Zm101.22778,163.96033c-24.23779-8.55444-45.62378-14.73267-73.66357-25.66333-.54248-12.91431,28.09546-33.30395,53.91186-24.21655C2779.0253,1661.94765,2781.53189,1693.01869,2773.07925,1702.78212Zm-101.22778-163.96033c-116.43579-7.36633-214.14209,118.36048-198.17822,203.88123,19.96044,106.93066,226.69311,196.03955,373.54467,129.74243,4.75244-2.37622,19.21973-56.37463,19.96045-59.8811-84.11889,16.396-150.416,3.56433-181.78222-67.7229,81.26709,30.65356,101.22754,37.06945,186.772,59.88134C2937.75259,1652.16835,2826.37954,1548.598,2671.85147,1538.82179Zm101.22778,163.96033c-24.23779-8.55444-45.62378-14.73267-73.66357-25.66333-.54248-12.91431,28.09546-33.30395,53.91186-24.21655C2779.0253,1661.94765,2781.53189,1693.01869,2773.07925,1702.78212Zm-101.22778-163.96033c-116.43579-7.36633-214.14209,118.36048-198.17822,203.88123,19.96044,106.93066,226.69311,196.03955,373.54467,129.74243,4.75244-2.37622,19.21973-56.37463,19.96045-59.8811-84.11889,16.396-150.416,3.56433-181.78222-67.7229,81.26709,30.65356,101.22754,37.06945,186.772,59.88134C2937.75259,1652.16835,2826.37954,1548.598,2671.85147,1538.82179Zm101.22778,163.96033c-24.23779-8.55444-45.62378-14.73267-73.66357-25.66333-.54248-12.91431,28.09546-33.30395,53.91186-24.21655C2779.0253,1661.94765,2781.53189,1693.01869,2773.07925,1702.78212Zm-101.22778-163.96033c-116.43579-7.36633-214.14209,118.36048-198.17822,203.88123,19.96044,106.93066,226.69311,196.03955,373.54467,129.74243,4.75244-2.37622,19.21973-56.37463,19.96045-59.8811-84.11889,16.396-150.416,3.56433-181.78222-67.7229,81.26709,30.65356,101.22754,37.06945,186.772,59.88134C2937.75259,1652.16835,2826.37954,1548.598,2671.85147,1538.82179Zm101.22778,163.96033c-24.23779-8.55444-45.62378-14.73267-73.66357-25.66333-.54248-12.91431,28.09546-33.30395,53.91186-24.21655C2779.0253,1661.94765,2781.53189,1693.01869,2773.07925,1702.78212Zm-101.22778-163.96033c-116.43579-7.36633-214.14209,118.36048-198.17822,203.88123,19.96044,106.93066,226.69311,196.03955,373.54467,129.74243,4.75244-2.37622,19.21973-56.37463,19.96045-59.8811-84.11889,16.396-150.416,3.56433-181.78222-67.7229,81.26709,30.65356,101.22754,37.06945,186.772,59.88134C2937.75259,1652.16835,2826.37954,1548.598,2671.85147,1538.82179Zm101.22778,163.96033c-24.23779-8.55444-45.62378-14.73267-73.66357-25.66333-.54248-12.91431,28.09546-33.30395,53.91186-24.21655C2779.0253,1661.94765,2781.53189,1693.01869,2773.07925,1702.78212Zm-101.22778-163.96033c-116.43579-7.36633-214.14209,118.36048-198.17822,203.88123,19.96044,106.93066,226.69311,196.03955,373.54467,129.74243,4.75244-2.37622,19.21973-56.37463,19.96045-59.8811-84.11889,16.396-150.416,3.56433-181.78222-67.7229,81.26709,30.65356,101.22754,37.06945,186.772,59.88134C2937.75259,1652.16835,2826.37954,1548.598,2671.85147,1538.82179Zm101.22778,163.96033c-24.23779-8.55444-45.62378-14.73267-73.66357-25.66333-.54248-12.91431,28.09546-33.30395,53.91186-24.21655C2779.0253,1661.94765,2781.53189,1693.01869,2773.07925,1702.78212Zm-101.22778-163.96033c-116.43579-7.36633-214.14209,118.36048-198.17822,203.88123,19.96044,106.93066,226.69311,196.03955,373.54467,129.74243,4.75244-2.37622,19.21973-56.37463,19.96045-59.8811-84.11889,16.396-150.416,3.56433-181.78222-67.7229,81.26709,30.65356,101.22754,37.06945,186.772,59.88134C2937.75259,1652.16835,2826.37954,1548.598,2671.85147,1538.82179Zm101.22778,163.96033c-24.23779-8.55444-45.62378-14.73267-73.66357-25.66333-.54248-12.91431,28.09546-33.30395,53.91186-24.21655C2779.0253,1661.94765,2781.53189,1693.01869,2773.07925,1702.78212Zm-101.22778-163.96033c-116.43579-7.36633-214.14209,118.36048-198.17822,203.88123,19.96044,106.93066,226.69311,196.03955,373.54467,129.74243,4.75244-2.37622,19.21973-56.37463,19.96045-59.8811-84.11889,16.396-150.416,3.56433-181.78222-67.7229,81.26709,30.65356,101.22754,37.06945,186.772,59.88134C2937.75259,1652.16835,2826.37954,1548.598,2671.85147,1538.82179Zm101.22778,163.96033c-24.23779-8.55444-45.62378-14.73267-73.66357-25.66333-.54248-12.91431,28.09546-33.30395,53.91186-24.21655C2779.0253,1661.94765,2781.53189,1693.01869,2773.07925,1702.78212Zm-101.22778-163.96033c-116.43579-7.36633-214.14209,118.36048-198.17822,203.88123,19.96044,106.93066,226.69311,196.03955,373.54467,129.74243,4.75244-2.37622,19.21973-56.37463,19.96045-59.8811-84.11889,16.396-150.416,3.56433-181.78222-67.7229,81.26709,30.65356,101.22754,37.06945,186.772,59.88134C2937.75259,1652.16835,2826.37954,1548.598,2671.85147,1538.82179Zm101.22778,163.96033c-24.23779-8.55444-45.62378-14.73267-73.66357-25.66333-.54248-12.91431,28.09546-33.30395,53.91186-24.21655C2779.0253,1661.94765,2781.53189,1693.01869,2773.07925,1702.78212Zm-101.22778-163.96033c-116.43579-7.36633-214.14209,118.36048-198.17822,203.88123,19.96044,106.93066,226.69311,196.03955,373.54467,129.74243,4.75244-2.37622,19.21973-56.37463,19.96045-59.8811-84.11889,16.396-150.416,3.56433-181.78222-67.7229,81.26709,30.65356,101.22754,37.06945,186.772,59.88134C2937.75259,1652.16835,2826.37954,1548.598,2671.85147,1538.82179Zm101.22778,163.96033c-24.23779-8.55444-45.62378-14.73267-73.66357-25.66333-.54248-12.91431,28.09546-33.30395,53.91186-24.21655C2779.0253,1661.94765,2781.53189,1693.01869,2773.07925,1702.78212Zm-101.22778-163.96033c-116.43579-7.36633-214.14209,118.36048-198.17822,203.88123,19.96044,106.93066,226.69311,196.03955,373.54467,129.74243,4.75244-2.37622,19.21973-56.37463,19.96045-59.8811-84.11889,16.396-150.416,3.56433-181.78222-67.7229,81.26709,30.65356,101.22754,37.06945,186.772,59.88134C2937.75259,1652.16835,2826.37954,1548.598,2671.85147,1538.82179Zm101.22778,163.96033c-24.23779-8.55444-45.62378-14.73267-73.66357-25.66333-.54248-12.91431,28.09546-33.30395,53.91186-24.21655C2779.0253,1661.94765,2781.53189,1693.01869,2773.07925,1702.78212Zm-101.22778-163.96033c-116.43579-7.36633-214.14209,118.36048-198.17822,203.88123,19.96044,106.93066,226.69311,196.03955,373.54467,129.74243,4.75244-2.37622,19.21973-56.37463,19.96045-59.8811-84.11889,16.396-150.416,3.56433-181.78222-67.7229,81.26709,30.65356,101.22754,37.06945,186.772,59.88134C2937.75259,1652.16835,2826.37954,1548.598,2671.85147,1538.82179Zm101.22778,163.96033c-24.23779-8.55444-45.62378-14.73267-73.66357-25.66333-.54248-12.91431,28.09546-33.30395,53.91186-24.21655C2779.0253,1661.94765,2781.53189,1693.01869,2773.07925,1702.78212Zm-101.22778-163.96033c-116.43579-7.36633-214.14209,118.36048-198.17822,203.88123,19.96044,106.93066,226.69311,196.03955,373.54467,129.74243,4.75244-2.37622,19.21973-56.37463,19.96045-59.8811-84.11889,16.396-150.416,3.56433-181.78222-67.7229,81.26709,30.65356,101.22754,37.06945,186.772,59.88134C2937.75259,1652.16835,2826.37954,1548.598,2671.85147,1538.82179Zm101.22778,163.96033c-24.23779-8.55444-45.62378-14.73267-73.66357-25.66333-.54248-12.91431,28.09546-33.30395,53.91186-24.21655C2779.0253,1661.94765,2781.53189,1693.01869,2773.07925,1702.78212Zm-101.22778-163.96033c-116.43579-7.36633-214.14209,118.36048-198.17822,203.88123,19.96044,106.93066,226.69311,196.03955,373.54467,129.74243,4.75244-2.37622,19.21973-56.37463,19.96045-59.8811-84.11889,16.396-150.416,3.56433-181.78222-67.7229,81.26709,30.65356,101.22754,37.06945,186.772,59.88134C2937.75259,1652.16835,2826.37954,1548.598,2671.85147,1538.82179Zm101.22778,163.96033c-24.23779-8.55444-45.62378-14.73267-73.66357-25.66333-.54248-12.91431,28.09546-33.30395,53.91186-24.21655C2779.0253,1661.94765,2781.53189,1693.01869,2773.07925,1702.78212Zm-101.22778-163.96033c-116.43579-7.36633-214.14209,118.36048-198.17822,203.88123,19.96044,106.93066,226.69311,196.03955,373.54467,129.74243,4.75244-2.37622,19.21973-56.37463,19.96045-59.8811-84.11889,16.396-150.416,3.56433-181.78222-67.7229,81.26709,30.65356,101.22754,37.06945,186.772,59.88134C2937.75259,1652.16835,2826.37954,1548.598,2671.85147,1538.82179Zm101.22778,163.96033c-24.23779-8.55444-45.62378-14.73267-73.66357-25.66333-.54248-12.91431,28.09546-33.30395,53.91186-24.21655C2779.0253,1661.94765,2781.53189,1693.01869,2773.07925,1702.78212Zm-101.22778-163.96033c-116.43579-7.36633-214.14209,118.36048-198.17822,203.88123,19.96044,106.93066,226.69311,196.03955,373.54467,129.74243,4.75244-2.37622,19.21973-56.37463,19.96045-59.8811-84.11889,16.396-150.416,3.56433-181.78222-67.7229,81.26709,30.65356,101.22754,37.06945,186.772,59.88134C2937.75259,1652.16835,2826.37954,1548.598,2671.85147,1538.82179Zm101.22778,163.96033c-24.23779-8.55444-45.62378-14.73267-73.66357-25.66333-.54248-12.91431,28.09546-33.30395,53.91186-24.21655C2779.0253,1661.94765,2781.53189,1693.01869,2773.07925,1702.78212Zm-101.22778-163.96033c-116.43579-7.36633-214.14209,118.36048-198.17822,203.88123,19.96044,106.93066,226.69311,196.03955,373.54467,129.74243,4.75244-2.37622,19.21973-56.37463,19.96045-59.8811-84.11889,16.396-150.416,3.56433-181.78222-67.7229,81.26709,30.65356,101.22754,37.06945,186.772,59.88134C2937.75259,1652.16835,2826.37954,1548.598,2671.85147,1538.82179Zm101.22778,163.96033c-24.23779-8.55444-45.62378-14.73267-73.66357-25.66333-.54248-12.91431,28.09546-33.30395,53.91186-24.21655C2779.0253,1661.94765,2781.53189,1693.01869,2773.07925,1702.78212Zm-101.22778-163.96033c-116.43579-7.36633-214.14209,118.36048-198.17822,203.88123,19.96044,106.93066,226.69311,196.03955,373.54467,129.74243,4.75244-2.37622,19.21973-56.37463,19.96045-59.8811-84.11889,16.396-150.416,3.56433-181.78222-67.7229,81.26709,30.65356,101.22754,37.06945,186.772,59.88134C2937.75259,1652.16835,2826.37954,1548.598,2671.85147,1538.82179Zm101.22778,163.96033c-24.23779-8.55444-45.62378-14.73267-73.66357-25.66333-.54248-12.91431,28.09546-33.30395,53.91186-24.21655C2779.0253,1661.94765,2781.53189,1693.01869,2773.07925,1702.78212Zm-101.22778-163.96033c-116.43579-7.36633-214.14209,118.36048-198.17822,203.88123,19.96044,106.93066,226.69311,196.03955,373.54467,129.74243,4.75244-2.37622,19.21973-56.37463,19.96045-59.8811-84.11889,16.396-150.416,3.56433-181.78222-67.7229,81.26709,30.65356,101.22754,37.06945,186.772,59.88134C2937.75259,1652.16835,2826.37954,1548.598,2671.85147,1538.82179Zm101.22778,163.96033c-24.23779-8.55444-45.62378-14.73267-73.66357-25.66333-.54248-12.91431,28.09546-33.30395,53.91186-24.21655C2779.0253,1661.94765,2781.53189,1693.01869,2773.07925,1702.78212Zm-101.22778-163.96033c-116.43579-7.36633-214.14209,118.36048-198.17822,203.88123,19.96044,106.93066,226.69311,196.03955,373.54467,129.74243,4.75244-2.37622,19.21973-56.37463,19.96045-59.8811-84.11889,16.396-150.416,3.56433-181.78222-67.7229,81.26709,30.65356,101.22754,37.06945,186.772,59.88134C2937.75259,1652.16835,2826.37954,1548.598,2671.85147,1538.82179Zm101.22778,163.96033c-24.23779-8.55444-45.62378-14.73267-73.66357-25.66333-.54248-12.91431,28.09546-33.30395,53.91186-24.21655C2779.0253,1661.94765,2781.53189,1693.01869,2773.07925,1702.78212Zm-101.22778-163.96033c-116.43579-7.36633-214.14209,118.36048-198.17822,203.88123,19.96044,106.93066,226.69311,196.03955,373.54467,129.74243,4.75244-2.37622,19.21973-56.37463,19.96045-59.8811-84.11889,16.396-150.416,3.56433-181.78222-67.7229,81.26709,30.65356,101.22754,37.06945,186.772,59.88134C2937.75259,1652.16835,2826.37954,1548.598,2671.85147,1538.82179Zm101.22778,163.96033c-24.23779-8.55444-45.62378-14.73267-73.66357-25.66333-.54248-12.91431,28.09546-33.30395,53.91186-24.21655C2779.0253,1661.94765,2781.53189,1693.01869,2773.07925,1702.78212Zm-101.22778-163.96033c-116.43579-7.36633-214.14209,118.36048-198.17822,203.88123,19.96044,106.93066,226.69311,196.03955,373.54467,129.74243,4.75244-2.37622,19.21973-56.37463,19.96045-59.8811-84.11889,16.396-150.416,3.56433-181.78222-67.7229,81.26709,30.65356,101.22754,37.06945,186.772,59.88134C2937.75259,1652.16835,2826.37954,1548.598,2671.85147,1538.82179Zm101.22778,163.96033c-24.23779-8.55444-45.62378-14.73267-73.66357-25.66333-.54248-12.91431,28.09546-33.30395,53.91186-24.21655C2779.0253,1661.94765,2781.53189,1693.01869,2773.07925,1702.78212Zm-101.22778-163.96033c-116.43579-7.36633-214.14209,118.36048-198.17822,203.88123,19.96044,106.93066,226.69311,196.03955,373.54467,129.74243,4.75244-2.37622,19.21973-56.37463,19.96045-59.8811-84.11889,16.396-150.416,3.56433-181.78222-67.7229,81.26709,30.65356,101.22754,37.06945,186.772,59.88134C2937.75259,1652.16835,2826.37954,1548.598,2671.85147,1538.82179Zm101.22778,163.96033c-24.23779-8.55444-45.62378-14.73267-73.66357-25.66333-.54248-12.91431,28.09546-33.30395,53.91186-24.21655C2779.0253,1661.94765,2781.53189,1693.01869,2773.07925,1702.78212Zm-101.22778-163.96033c-116.43579-7.36633-214.14209,118.36048-198.17822,203.88123,19.96044,106.93066,226.69311,196.03955,373.54467,129.74243,4.75244-2.37622,19.21973-56.37463,19.96045-59.8811-84.11889,16.396-150.416,3.56433-181.78222-67.7229,81.26709,30.65356,101.22754,37.06945,186.772,59.88134C2937.75259,1652.16835,2826.37954,1548.598,2671.85147,1538.82179Zm101.22778,163.96033c-24.23779-8.55444-45.62378-14.73267-73.66357-25.66333-.54248-12.91431,28.09546-33.30395,53.91186-24.21655C2779.0253,1661.94765,2781.53189,1693.01869,2773.07925,1702.78212Zm-101.22778-163.96033c-116.43579-7.36633-214.14209,118.36048-198.17822,203.88123,19.96044,106.93066,226.69311,196.03955,373.54467,129.74243,4.75244-2.37622,19.21973-56.37463,19.96045-59.8811-84.11889,16.396-150.416,3.56433-181.78222-67.7229,81.26709,30.65356,101.22754,37.06945,186.772,59.88134C2937.75259,1652.16835,2826.37954,1548.598,2671.85147,1538.82179Zm101.22778,163.96033c-24.23779-8.55444-45.62378-14.73267-73.66357-25.66333-.54248-12.91431,28.09546-33.30395,53.91186-24.21655C2779.0253,1661.94765,2781.53189,1693.01869,2773.07925,1702.78212Zm-101.22778-163.96033c-116.43579-7.36633-214.14209,118.36048-198.17822,203.88123,19.96044,106.93066,226.69311,196.03955,373.54467,129.74243,4.75244-2.37622,19.21973-56.37463,19.96045-59.8811-84.11889,16.396-150.416,3.56433-181.78222-67.7229,81.26709,30.65356,101.22754,37.06945,186.772,59.88134C2937.75259,1652.16835,2826.37954,1548.598,2671.85147,1538.82179Zm101.22778,163.96033c-24.23779-8.55444-45.62378-14.73267-73.66357-25.66333-.54248-12.91431,28.09546-33.30395,53.91186-24.21655C2779.0253,1661.94765,2781.53189,1693.01869,2773.07925,1702.78212Zm-101.22778-163.96033c-116.43579-7.36633-214.14209,118.36048-198.17822,203.88123,19.96044,106.93066,226.69311,196.03955,373.54467,129.74243,4.75244-2.37622,19.21973-56.37463,19.96045-59.8811-84.11889,16.396-150.416,3.56433-181.78222-67.7229,81.26709,30.65356,101.22754,37.06945,186.772,59.88134C2937.75259,1652.16835,2826.37954,1548.598,2671.85147,1538.82179Zm101.22778,163.96033c-24.23779-8.55444-45.62378-14.73267-73.66357-25.66333-.54248-12.91431,28.09546-33.30395,53.91186-24.21655C2779.0253,1661.94765,2781.53189,1693.01869,2773.07925,1702.78212Zm-101.22778-163.96033c-116.43579-7.36633-214.14209,118.36048-198.17822,203.88123,19.96044,106.93066,226.69311,196.03955,373.54467,129.74243,4.75244-2.37622,19.21973-56.37463,19.96045-59.8811-84.11889,16.396-150.416,3.56433-181.78222-67.7229,81.26709,30.65356,101.22754,37.06945,186.772,59.88134C2937.75259,1652.16835,2826.37954,1548.598,2671.85147,1538.82179Zm101.22778,163.96033c-24.23779-8.55444-45.62378-14.73267-73.66357-25.66333-.54248-12.91431,28.09546-33.30395,53.91186-24.21655C2779.0253,1661.94765,2781.53189,1693.01869,2773.07925,1702.78212Zm-101.22778-163.96033c-116.43579-7.36633-214.14209,118.36048-198.17822,203.88123,19.96044,106.93066,226.69311,196.03955,373.54467,129.74243,4.75244-2.37622,19.21973-56.37463,19.96045-59.8811-84.11889,16.396-150.416,3.56433-181.78222-67.7229,81.26709,30.65356,101.22754,37.06945,186.772,59.88134C2937.75259,1652.16835,2826.37954,1548.598,2671.85147,1538.82179Zm101.22778,163.96033c-24.23779-8.55444-45.62378-14.73267-73.66357-25.66333-.54248-12.91431,28.09546-33.30395,53.91186-24.21655C2779.0253,1661.94765,2781.53189,1693.01869,2773.07925,1702.78212Zm-101.22778-163.96033c-116.43579-7.36633-214.14209,118.36048-198.17822,203.88123,19.96044,106.93066,226.69311,196.03955,373.54467,129.74243,4.75244-2.37622,19.21973-56.37463,19.96045-59.8811-84.11889,16.396-150.416,3.56433-181.78222-67.7229,81.26709,30.65356,101.22754,37.06945,186.772,59.88134C2937.75259,1652.16835,2826.37954,1548.598,2671.85147,1538.82179Zm101.22778,163.96033c-24.23779-8.55444-45.62378-14.73267-73.66357-25.66333-.54248-12.91431,28.09546-33.30395,53.91186-24.21655C2779.0253,1661.94765,2781.53189,1693.01869,2773.07925,1702.78212Zm-101.22778-163.96033c-116.43579-7.36633-214.14209,118.36048-198.17822,203.88123,19.96044,106.93066,226.69311,196.03955,373.54467,129.74243,4.75244-2.37622,19.21973-56.37463,19.96045-59.8811-84.11889,16.396-150.416,3.56433-181.78222-67.7229,81.26709,30.65356,101.22754,37.06945,186.772,59.88134C2937.75259,1652.16835,2826.37954,1548.598,2671.85147,1538.82179Zm101.22778,163.96033c-24.23779-8.55444-45.62378-14.73267-73.66357-25.66333-.54248-12.91431,28.09546-33.30395,53.91186-24.21655C2779.0253,1661.94765,2781.53189,1693.01869,2773.07925,1702.78212Zm-101.22778-163.96033c-116.43579-7.36633-214.14209,118.36048-198.17822,203.88123,19.96044,106.93066,226.69311,196.03955,373.54467,129.74243,4.75244-2.37622,19.21973-56.37463,19.96045-59.8811-84.11889,16.396-150.416,3.56433-181.78222-67.7229,81.26709,30.65356,101.22754,37.06945,186.772,59.88134C2937.75259,1652.16835,2826.37954,1548.598,2671.85147,1538.82179Zm101.22778,163.96033c-24.23779-8.55444-45.62378-14.73267-73.66357-25.66333-.54248-12.91431,28.09546-33.30395,53.91186-24.21655C2779.0253,1661.94765,2781.53189,1693.01869,2773.07925,1702.78212Zm-101.22778-163.96033c-116.43579-7.36633-214.14209,118.36048-198.17822,203.88123,19.96044,106.93066,226.69311,196.03955,373.54467,129.74243,4.75244-2.37622,19.21973-56.37463,19.96045-59.8811-84.11889,16.396-150.416,3.56433-181.78222-67.7229,81.26709,30.65356,101.22754,37.06945,186.772,59.88134C2937.75259,1652.16835,2826.37954,1548.598,2671.85147,1538.82179Zm101.22778,163.96033c-24.23779-8.55444-45.62378-14.73267-73.66357-25.66333-.54248-12.91431,28.09546-33.30395,53.91186-24.21655C2779.0253,1661.94765,2781.53189,1693.01869,2773.07925,1702.78212Zm-101.22778-163.96033c-116.43579-7.36633-214.14209,118.36048-198.17822,203.88123,19.96044,106.93066,226.69311,196.03955,373.54467,129.74243,4.75244-2.37622,19.21973-56.37463,19.96045-59.8811-84.11889,16.396-150.416,3.56433-181.78222-67.7229,81.26709,30.65356,101.22754,37.06945,186.772,59.88134C2937.75259,1652.16835,2826.37954,1548.598,2671.85147,1538.82179Zm101.22778,163.96033c-24.23779-8.55444-45.62378-14.73267-73.66357-25.66333-.54248-12.91431,28.09546-33.30395,53.91186-24.21655C2779.0253,1661.94765,2781.53189,1693.01869,2773.07925,1702.78212Zm-101.22778-163.96033c-116.43579-7.36633-214.14209,118.36048-198.17822,203.88123,19.96044,106.93066,226.69311,196.03955,373.54467,129.74243,4.75244-2.37622,19.21973-56.37463,19.96045-59.8811-84.11889,16.396-150.416,3.56433-181.78222-67.7229,81.26709,30.65356,101.22754,37.06945,186.772,59.88134C2937.75259,1652.16835,2826.37954,1548.598,2671.85147,1538.82179Zm101.22778,163.96033c-24.23779-8.55444-45.62378-14.73267-73.66357-25.66333-.54248-12.91431,28.09546-33.30395,53.91186-24.21655C2779.0253,1661.94765,2781.53189,1693.01869,2773.07925,1702.78212Zm-101.22778-163.96033c-116.43579-7.36633-214.14209,118.36048-198.17822,203.88123,19.96044,106.93066,226.69311,196.03955,373.54467,129.74243,4.75244-2.37622,19.21973-56.37463,19.96045-59.8811-84.11889,16.396-150.416,3.56433-181.78222-67.7229,81.26709,30.65356,101.22754,37.06945,186.772,59.88134C2937.75259,1652.16835,2826.37954,1548.598,2671.85147,1538.82179Zm101.22778,163.96033c-24.23779-8.55444-45.62378-14.73267-73.66357-25.66333-.54248-12.91431,28.09546-33.30395,53.91186-24.21655C2779.0253,1661.94765,2781.53189,1693.01869,2773.07925,1702.78212Zm-101.22778-163.96033c-116.43579-7.36633-214.14209,118.36048-198.17822,203.88123,19.96044,106.93066,226.69311,196.03955,373.54467,129.74243,4.75244-2.37622,19.21973-56.37463,19.96045-59.8811-84.11889,16.396-150.416,3.56433-181.78222-67.7229,81.26709,30.65356,101.22754,37.06945,186.772,59.88134C2937.75259,1652.16835,2826.37954,1548.598,2671.85147,1538.82179Zm101.22778,163.96033c-24.23779-8.55444-45.62378-14.73267-73.66357-25.66333-.54248-12.91431,28.09546-33.30395,53.91186-24.21655C2779.0253,1661.94765,2781.53189,1693.01869,2773.07925,1702.78212Zm-101.22778-163.96033c-116.43579-7.36633-214.14209,118.36048-198.17822,203.88123,19.96044,106.93066,226.69311,196.03955,373.54467,129.74243,4.75244-2.37622,19.21973-56.37463,19.96045-59.8811-84.11889,16.396-150.416,3.56433-181.78222-67.7229,81.26709,30.65356,101.22754,37.06945,186.772,59.88134C2937.75259,1652.16835,2826.37954,1548.598,2671.85147,1538.82179Zm101.22778,163.96033c-24.23779-8.55444-45.62378-14.73267-73.66357-25.66333-.54248-12.91431,28.09546-33.30395,53.91186-24.21655C2779.0253,1661.94765,2781.53189,1693.01869,2773.07925,1702.78212Zm-101.22778-163.96033c-116.43579-7.36633-214.14209,118.36048-198.17822,203.88123,19.96044,106.93066,226.69311,196.03955,373.54467,129.74243,4.75244-2.37622,19.21973-56.37463,19.96045-59.8811-84.11889,16.396-150.416,3.56433-181.78222-67.7229,81.26709,30.65356,101.22754,37.06945,186.772,59.88134C2937.75259,1652.16835,2826.37954,1548.598,2671.85147,1538.82179Zm101.22778,163.96033c-24.23779-8.55444-45.62378-14.73267-73.66357-25.66333-.54248-12.91431,28.09546-33.30395,53.91186-24.21655C2779.0253,1661.94765,2781.53189,1693.01869,2773.07925,1702.78212Zm-101.22778-163.96033c-116.43579-7.36633-214.14209,118.36048-198.17822,203.88123,19.96044,106.93066,226.69311,196.03955,373.54467,129.74243,4.75244-2.37622,19.21973-56.37463,19.96045-59.8811-84.11889,16.396-150.416,3.56433-181.78222-67.7229,81.26709,30.65356,101.22754,37.06945,186.772,59.88134C2937.75259,1652.16835,2826.37954,1548.598,2671.85147,1538.82179Zm101.22778,163.96033c-24.23779-8.55444-45.62378-14.73267-73.66357-25.66333-.54248-12.91431,28.09546-33.30395,53.91186-24.21655C2779.0253,1661.94765,2781.53189,1693.01869,2773.07925,1702.78212Zm-101.22778-163.96033c-116.43579-7.36633-214.14209,118.36048-198.17822,203.88123,19.96044,106.93066,226.69311,196.03955,373.54467,129.74243,4.75244-2.37622,19.21973-56.37463,19.96045-59.8811-84.11889,16.396-150.416,3.56433-181.78222-67.7229,81.26709,30.65356,101.22754,37.06945,186.772,59.88134C2937.75259,1652.16835,2826.37954,1548.598,2671.85147,1538.82179Zm101.22778,163.96033c-24.23779-8.55444-45.62378-14.73267-73.66357-25.66333-.54248-12.91431,28.09546-33.30395,53.91186-24.21655C2779.0253,1661.94765,2781.53189,1693.01869,2773.07925,1702.78212Zm-101.22778-163.96033c-116.43579-7.36633-214.14209,118.36048-198.17822,203.88123,19.96044,106.93066,226.69311,196.03955,373.54467,129.74243,4.75244-2.37622,19.21973-56.37463,19.96045-59.8811-84.11889,16.396-150.416,3.56433-181.78222-67.7229,81.26709,30.65356,101.22754,37.06945,186.772,59.88134C2937.75259,1652.16835,2826.37954,1548.598,2671.85147,1538.82179Zm101.22778,163.96033c-24.23779-8.55444-45.62378-14.73267-73.66357-25.66333-.54248-12.91431,28.09546-33.30395,53.91186-24.21655C2779.0253,1661.94765,2781.53189,1693.01869,2773.07925,1702.78212Zm-101.22778-163.96033c-116.43579-7.36633-214.14209,118.36048-198.17822,203.88123,19.96044,106.93066,226.69311,196.03955,373.54467,129.74243,4.75244-2.37622,19.21973-56.37463,19.96045-59.8811-84.11889,16.396-150.416,3.56433-181.78222-67.7229,81.26709,30.65356,101.22754,37.06945,186.772,59.88134C2937.75259,1652.16835,2826.37954,1548.598,2671.85147,1538.82179Zm101.22778,163.96033c-24.23779-8.55444-45.62378-14.73267-73.66357-25.66333-.54248-12.91431,28.09546-33.30395,53.91186-24.21655C2779.0253,1661.94765,2781.53189,1693.01869,2773.07925,1702.78212Zm-101.22778-163.96033c-116.43579-7.36633-214.14209,118.36048-198.17822,203.88123,19.96044,106.93066,226.69311,196.03955,373.54467,129.74243,4.75244-2.37622,19.21973-56.37463,19.96045-59.8811-84.11889,16.396-150.416,3.56433-181.78222-67.7229,81.26709,30.65356,101.22754,37.06945,186.772,59.88134C2937.75259,1652.16835,2826.37954,1548.598,2671.85147,1538.82179Zm101.22778,163.96033c-24.23779-8.55444-45.62378-14.73267-73.66357-25.66333-.54248-12.91431,28.09546-33.30395,53.91186-24.21655C2779.0253,1661.94765,2781.53189,1693.01869,2773.07925,1702.78212Zm-101.22778-163.96033c-116.43579-7.36633-214.14209,118.36048-198.17822,203.88123,19.96044,106.93066,226.69311,196.03955,373.54467,129.74243,4.75244-2.37622,19.21973-56.37463,19.96045-59.8811-84.11889,16.396-150.416,3.56433-181.78222-67.7229,81.26709,30.65356,101.22754,37.06945,186.772,59.88134C2937.75259,1652.16835,2826.37954,1548.598,2671.85147,1538.82179Zm101.22778,163.96033c-24.23779-8.55444-45.62378-14.73267-73.66357-25.66333-.54248-12.91431,28.09546-33.30395,53.91186-24.21655C2779.0253,1661.94765,2781.53189,1693.01869,2773.07925,1702.78212Zm-101.22778-163.96033c-116.43579-7.36633-214.14209,118.36048-198.17822,203.88123,19.96044,106.93066,226.69311,196.03955,373.54467,129.74243,4.75244-2.37622,19.21973-56.37463,19.96045-59.8811-84.11889,16.396-150.416,3.56433-181.78222-67.7229,81.26709,30.65356,101.22754,37.06945,186.772,59.88134C2937.75259,1652.16835,2826.37954,1548.598,2671.85147,1538.82179Zm101.22778,163.96033c-24.23779-8.55444-45.62378-14.73267-73.66357-25.66333-.54248-12.91431,28.09546-33.30395,53.91186-24.21655C2779.0253,1661.94765,2781.53189,1693.01869,2773.07925,1702.78212Zm-101.22778-163.96033c-116.43579-7.36633-214.14209,118.36048-198.17822,203.88123,19.96044,106.93066,226.69311,196.03955,373.54467,129.74243,4.75244-2.37622,19.21973-56.37463,19.96045-59.8811-84.11889,16.396-150.416,3.56433-181.78222-67.7229,81.26709,30.65356,101.22754,37.06945,186.772,59.88134C2937.75259,1652.16835,2826.37954,1548.598,2671.85147,1538.82179Zm101.22778,163.96033c-24.23779-8.55444-45.62378-14.73267-73.66357-25.66333-.54248-12.91431,28.09546-33.30395,53.91186-24.21655C2779.0253,1661.94765,2781.53189,1693.01869,2773.07925,1702.78212Zm-101.22778-163.96033c-116.43579-7.36633-214.14209,118.36048-198.17822,203.88123,19.96044,106.93066,226.69311,196.03955,373.54467,129.74243,4.75244-2.37622,19.21973-56.37463,19.96045-59.8811-84.11889,16.396-150.416,3.56433-181.78222-67.7229,81.26709,30.65356,101.22754,37.06945,186.772,59.88134C2937.75259,1652.16835,2826.37954,1548.598,2671.85147,1538.82179Zm101.22778,163.96033c-24.23779-8.55444-45.62378-14.73267-73.66357-25.66333-.54248-12.91431,28.09546-33.30395,53.91186-24.21655C2779.0253,1661.94765,2781.53189,1693.01869,2773.07925,1702.78212Zm-101.22778-163.96033c-116.43579-7.36633-214.14209,118.36048-198.17822,203.88123,19.96044,106.93066,226.69311,196.03955,373.54467,129.74243,4.75244-2.37622,19.21973-56.37463,19.96045-59.8811-84.11889,16.396-150.416,3.56433-181.78222-67.7229,81.26709,30.65356,101.22754,37.06945,186.772,59.88134C2937.75259,1652.16835,2826.37954,1548.598,2671.85147,1538.82179Zm101.22778,163.96033c-24.23779-8.55444-45.62378-14.73267-73.66357-25.66333-.54248-12.91431,28.09546-33.30395,53.91186-24.21655C2779.0253,1661.94765,2781.53189,1693.01869,2773.07925,1702.78212Zm-101.22778-163.96033c-116.43579-7.36633-214.14209,118.36048-198.17822,203.88123,19.96044,106.93066,226.69311,196.03955,373.54467,129.74243,4.75244-2.37622,19.21973-56.37463,19.96045-59.8811-84.11889,16.396-150.416,3.56433-181.78222-67.7229,81.26709,30.65356,101.22754,37.06945,186.772,59.88134C2937.75259,1652.16835,2826.37954,1548.598,2671.85147,1538.82179Zm101.22778,163.96033c-24.23779-8.55444-45.62378-14.73267-73.66357-25.66333-.54248-12.91431,28.09546-33.30395,53.91186-24.21655C2779.0253,1661.94765,2781.53189,1693.01869,2773.07925,1702.78212Zm-101.22778-163.96033c-116.43579-7.36633-214.14209,118.36048-198.17822,203.88123,19.96044,106.93066,226.69311,196.03955,373.54467,129.74243,4.75244-2.37622,19.21973-56.37463,19.96045-59.8811-84.11889,16.396-150.416,3.56433-181.78222-67.7229,81.26709,30.65356,101.22754,37.06945,186.772,59.88134C2937.75259,1652.16835,2826.37954,1548.598,2671.85147,1538.82179Zm101.22778,163.96033c-24.23779-8.55444-45.62378-14.73267-73.66357-25.66333-.54248-12.91431,28.09546-33.30395,53.91186-24.21655C2779.0253,1661.94765,2781.53189,1693.01869,2773.07925,1702.78212Zm-101.22778-163.96033c-116.43579-7.36633-214.14209,118.36048-198.17822,203.88123,19.96044,106.93066,226.69311,196.03955,373.54467,129.74243,4.75244-2.37622,19.21973-56.37463,19.96045-59.8811-84.11889,16.396-150.416,3.56433-181.78222-67.7229,81.26709,30.65356,101.22754,37.06945,186.772,59.88134C2937.75259,1652.16835,2826.37954,1548.598,2671.85147,1538.82179Zm101.22778,163.96033c-24.23779-8.55444-45.62378-14.73267-73.66357-25.66333-.54248-12.91431,28.09546-33.30395,53.91186-24.21655C2779.0253,1661.94765,2781.53189,1693.01869,2773.07925,1702.78212Zm-101.22778-163.96033c-116.43579-7.36633-214.14209,118.36048-198.17822,203.88123,19.96044,106.93066,226.69311,196.03955,373.54467,129.74243,4.75244-2.37622,19.21973-56.37463,19.96045-59.8811-84.11889,16.396-150.416,3.56433-181.78222-67.7229,81.26709,30.65356,101.22754,37.06945,186.772,59.88134C2937.75259,1652.16835,2826.37954,1548.598,2671.85147,1538.82179Zm101.22778,163.96033c-24.23779-8.55444-45.62378-14.73267-73.66357-25.66333-.54248-12.91431,28.09546-33.30395,53.91186-24.21655C2779.0253,1661.94765,2781.53189,1693.01869,2773.07925,1702.78212Zm-101.22778-163.96033c-116.43579-7.36633-214.14209,118.36048-198.17822,203.88123,19.96044,106.93066,226.69311,196.03955,373.54467,129.74243,4.75244-2.37622,19.21973-56.37463,19.96045-59.8811-84.11889,16.396-150.416,3.56433-181.78222-67.7229,81.26709,30.65356,101.22754,37.06945,186.772,59.88134C2937.75259,1652.16835,2826.37954,1548.598,2671.85147,1538.82179Zm101.22778,163.96033c-24.23779-8.55444-45.62378-14.73267-73.66357-25.66333-.54248-12.91431,28.09546-33.30395,53.91186-24.21655C2779.0253,1661.94765,2781.53189,1693.01869,2773.07925,1702.78212Zm-101.22778-163.96033c-116.43579-7.36633-214.14209,118.36048-198.17822,203.88123,19.96044,106.93066,226.69311,196.03955,373.54467,129.74243,4.75244-2.37622,19.21973-56.37463,19.96045-59.8811-84.11889,16.396-150.416,3.56433-181.78222-67.7229,81.26709,30.65356,101.22754,37.06945,186.772,59.88134C2937.75259,1652.16835,2826.37954,1548.598,2671.85147,1538.82179Zm101.22778,163.96033c-24.23779-8.55444-45.62378-14.73267-73.66357-25.66333-.54248-12.91431,28.09546-33.30395,53.91186-24.21655C2779.0253,1661.94765,2781.53189,1693.01869,2773.07925,1702.78212Zm-101.22778-163.96033c-116.43579-7.36633-214.14209,118.36048-198.17822,203.88123,19.96044,106.93066,226.69311,196.03955,373.54467,129.74243,4.75244-2.37622,19.21973-56.37463,19.96045-59.8811-84.11889,16.396-150.416,3.56433-181.78222-67.7229,81.26709,30.65356,101.22754,37.06945,186.772,59.88134C2937.75259,1652.16835,2826.37954,1548.598,2671.85147,1538.82179Zm101.22778,163.96033c-24.23779-8.55444-45.62378-14.73267-73.66357-25.66333-.54248-12.91431,28.09546-33.30395,53.91186-24.21655C2779.0253,1661.94765,2781.53189,1693.01869,2773.07925,1702.78212Zm-101.22778-163.96033c-116.43579-7.36633-214.14209,118.36048-198.17822,203.88123,19.96044,106.93066,226.69311,196.03955,373.54467,129.74243,4.75244-2.37622,19.21973-56.37463,19.96045-59.8811-84.11889,16.396-150.416,3.56433-181.78222-67.7229,81.26709,30.65356,101.22754,37.06945,186.772,59.88134C2937.75259,1652.16835,2826.37954,1548.598,2671.85147,1538.82179Zm101.22778,163.96033c-24.23779-8.55444-45.62378-14.73267-73.66357-25.66333-.54248-12.91431,28.09546-33.30395,53.91186-24.21655C2779.0253,1661.94765,2781.53189,1693.01869,2773.07925,1702.78212Zm-101.22778-163.96033c-116.43579-7.36633-214.14209,118.36048-198.17822,203.88123,19.96044,106.93066,226.69311,196.03955,373.54467,129.74243,4.75244-2.37622,19.21973-56.37463,19.96045-59.8811-84.11889,16.396-150.416,3.56433-181.78222-67.7229,81.26709,30.65356,101.22754,37.06945,186.772,59.88134C2937.75259,1652.16835,2826.37954,1548.598,2671.85147,1538.82179Zm101.22778,163.96033c-24.23779-8.55444-45.62378-14.73267-73.66357-25.66333-.54248-12.91431,28.09546-33.30395,53.91186-24.21655C2779.0253,1661.94765,2781.53189,1693.01869,2773.07925,1702.78212Zm-101.22778-163.96033c-116.43579-7.36633-214.14209,118.36048-198.17822,203.88123,19.96044,106.93066,226.69311,196.03955,373.54467,129.74243,4.75244-2.37622,19.21973-56.37463,19.96045-59.8811-84.11889,16.396-150.416,3.56433-181.78222-67.7229,81.26709,30.65356,101.22754,37.06945,186.772,59.88134C2937.75259,1652.16835,2826.37954,1548.598,2671.85147,1538.82179Zm101.22778,163.96033c-24.23779-8.55444-45.62378-14.73267-73.66357-25.66333-.54248-12.91431,28.09546-33.30395,53.91186-24.21655C2779.0253,1661.94765,2781.53189,1693.01869,2773.07925,1702.78212Zm-101.22778-163.96033c-116.43579-7.36633-214.14209,118.36048-198.17822,203.88123,19.96044,106.93066,226.69311,196.03955,373.54467,129.74243,4.75244-2.37622,19.21973-56.37463,19.96045-59.8811-84.11889,16.396-150.416,3.56433-181.78222-67.7229,81.26709,30.65356,101.22754,37.06945,186.772,59.88134C2937.75259,1652.16835,2826.37954,1548.598,2671.85147,1538.82179Zm101.22778,163.96033c-24.23779-8.55444-45.62378-14.73267-73.66357-25.66333-.54248-12.91431,28.09546-33.30395,53.91186-24.21655C2779.0253,1661.94765,2781.53189,1693.01869,2773.07925,1702.78212Zm-101.22778-163.96033c-116.43579-7.36633-214.14209,118.36048-198.17822,203.88123,19.96044,106.93066,226.69311,196.03955,373.54467,129.74243,4.75244-2.37622,19.21973-56.37463,19.96045-59.8811-84.11889,16.396-150.416,3.56433-181.78222-67.7229,81.26709,30.65356,101.22754,37.06945,186.772,59.88134C2937.75259,1652.16835,2826.37954,1548.598,2671.85147,1538.82179Zm101.22778,163.96033c-24.23779-8.55444-45.62378-14.73267-73.66357-25.66333-.54248-12.91431,28.09546-33.30395,53.91186-24.21655C2779.0253,1661.94765,2781.53189,1693.01869,2773.07925,1702.78212Zm-101.22778-163.96033c-116.43579-7.36633-214.14209,118.36048-198.17822,203.88123,19.96044,106.93066,226.69311,196.03955,373.54467,129.74243,4.75244-2.37622,19.21973-56.37463,19.96045-59.8811-84.11889,16.396-150.416,3.56433-181.78222-67.7229,81.26709,30.65356,101.22754,37.06945,186.772,59.88134C2937.75259,1652.16835,2826.37954,1548.598,2671.85147,1538.82179Zm101.22778,163.96033c-24.23779-8.55444-45.62378-14.73267-73.66357-25.66333-.54248-12.91431,28.09546-33.30395,53.91186-24.21655C2779.0253,1661.94765,2781.53189,1693.01869,2773.07925,1702.78212Zm-101.22778-163.96033c-116.43579-7.36633-214.14209,118.36048-198.17822,203.88123,19.96044,106.93066,226.69311,196.03955,373.54467,129.74243,4.75244-2.37622,19.21973-56.37463,19.96045-59.8811-84.11889,16.396-150.416,3.56433-181.78222-67.7229,81.26709,30.65356,101.22754,37.06945,186.772,59.88134C2937.75259,1652.16835,2826.37954,1548.598,2671.85147,1538.82179Zm101.22778,163.96033c-24.23779-8.55444-45.62378-14.73267-73.66357-25.66333-.54248-12.91431,28.09546-33.30395,53.91186-24.21655C2779.0253,1661.94765,2781.53189,1693.01869,2773.07925,1702.78212Zm-101.22778-163.96033c-116.43579-7.36633-214.14209,118.36048-198.17822,203.88123,19.96044,106.93066,226.69311,196.03955,373.54467,129.74243,4.75244-2.37622,19.21973-56.37463,19.96045-59.8811-84.11889,16.396-150.416,3.56433-181.78222-67.7229,81.26709,30.65356,101.22754,37.06945,186.772,59.88134C2937.75259,1652.16835,2826.37954,1548.598,2671.85147,1538.82179Zm101.22778,163.96033c-24.23779-8.55444-45.62378-14.73267-73.66357-25.66333-.54248-12.91431,28.09546-33.30395,53.91186-24.21655C2779.0253,1661.94765,2781.53189,1693.01869,2773.07925,1702.78212Zm-101.22778-163.96033c-116.43579-7.36633-214.14209,118.36048-198.17822,203.88123,19.96044,106.93066,226.69311,196.03955,373.54467,129.74243,4.75244-2.37622,19.21973-56.37463,19.96045-59.8811-84.11889,16.396-150.416,3.56433-181.78222-67.7229,81.26709,30.65356,101.22754,37.06945,186.772,59.88134C2937.75259,1652.16835,2826.37954,1548.598,2671.85147,1538.82179Zm101.22778,163.96033c-24.23779-8.55444-45.62378-14.73267-73.66357-25.66333-.54248-12.91431,28.09546-33.30395,53.91186-24.21655C2779.0253,1661.94765,2781.53189,1693.01869,2773.07925,1702.78212Zm-101.22778-163.96033c-116.43579-7.36633-214.14209,118.36048-198.17822,203.88123,19.96044,106.93066,226.69311,196.03955,373.54467,129.74243,4.75244-2.37622,19.21973-56.37463,19.96045-59.8811-84.11889,16.396-150.416,3.56433-181.78222-67.7229,81.26709,30.65356,101.22754,37.06945,186.772,59.88134C2937.75259,1652.16835,2826.37954,1548.598,2671.85147,1538.82179Zm101.22778,163.96033c-24.23779-8.55444-45.62378-14.73267-73.66357-25.66333-.54248-12.91431,28.09546-33.30395,53.91186-24.21655C2779.0253,1661.94765,2781.53189,1693.01869,2773.07925,1702.78212Zm-101.22778-163.96033c-116.43579-7.36633-214.14209,118.36048-198.17822,203.88123,19.96044,106.93066,226.69311,196.03955,373.54467,129.74243,4.75244-2.37622,19.21973-56.37463,19.96045-59.8811-84.11889,16.396-150.416,3.56433-181.78222-67.7229,81.26709,30.65356,101.22754,37.06945,186.772,59.88134C2937.75259,1652.16835,2826.37954,1548.598,2671.85147,1538.82179Zm101.22778,163.96033c-24.23779-8.55444-45.62378-14.73267-73.66357-25.66333-.54248-12.91431,28.09546-33.30395,53.91186-24.21655C2779.0253,1661.94765,2781.53189,1693.01869,2773.07925,1702.78212Zm-101.22778-163.96033c-116.43579-7.36633-214.14209,118.36048-198.17822,203.88123,19.96044,106.93066,226.69311,196.03955,373.54467,129.74243,4.75244-2.37622,19.21973-56.37463,19.96045-59.8811-84.11889,16.396-150.416,3.56433-181.78222-67.7229,81.26709,30.65356,101.22754,37.06945,186.772,59.88134C2937.75259,1652.16835,2826.37954,1548.598,2671.85147,1538.82179Zm101.22778,163.96033c-24.23779-8.55444-45.62378-14.73267-73.66357-25.66333-.54248-12.91431,28.09546-33.30395,53.91186-24.21655C2779.0253,1661.94765,2781.53189,1693.01869,2773.07925,1702.78212Zm-101.22778-163.96033c-116.43579-7.36633-214.14209,118.36048-198.17822,203.88123,19.96044,106.93066,226.69311,196.03955,373.54467,129.74243,4.75244-2.37622,19.21973-56.37463,19.96045-59.8811-84.11889,16.396-150.416,3.56433-181.78222-67.7229,81.26709,30.65356,101.22754,37.06945,186.772,59.88134C2937.75259,1652.16835,2826.37954,1548.598,2671.85147,1538.82179Zm101.22778,163.96033c-24.23779-8.55444-45.62378-14.73267-73.66357-25.66333-.54248-12.91431,28.09546-33.30395,53.91186-24.21655C2779.0253,1661.94765,2781.53189,1693.01869,2773.07925,1702.78212Zm-101.22778-163.96033c-116.43579-7.36633-214.14209,118.36048-198.17822,203.88123,19.96044,106.93066,226.69311,196.03955,373.54467,129.74243,4.75244-2.37622,19.21973-56.37463,19.96045-59.8811-84.11889,16.396-150.416,3.56433-181.78222-67.7229,81.26709,30.65356,101.22754,37.06945,186.772,59.88134C2937.75259,1652.16835,2826.37954,1548.598,2671.85147,1538.82179Zm101.22778,163.96033c-24.23779-8.55444-45.62378-14.73267-73.66357-25.66333-.54248-12.91431,28.09546-33.30395,53.91186-24.21655C2779.0253,1661.94765,2781.53189,1693.01869,2773.07925,1702.78212Zm-101.22778-163.96033c-116.43579-7.36633-214.14209,118.36048-198.17822,203.88123,19.96044,106.93066,226.69311,196.03955,373.54467,129.74243,4.75244-2.37622,19.21973-56.37463,19.96045-59.8811-84.11889,16.396-150.416,3.56433-181.78222-67.7229,81.26709,30.65356,101.22754,37.06945,186.772,59.88134C2937.75259,1652.16835,2826.37954,1548.598,2671.85147,1538.82179Zm101.22778,163.96033c-24.23779-8.55444-45.62378-14.73267-73.66357-25.66333-.54248-12.91431,28.09546-33.30395,53.91186-24.21655C2779.0253,1661.94765,2781.53189,1693.01869,2773.07925,1702.78212Zm-101.22778-163.96033c-116.43579-7.36633-214.14209,118.36048-198.17822,203.88123,19.96044,106.93066,226.69311,196.03955,373.54467,129.74243,4.75244-2.37622,19.21973-56.37463,19.96045-59.8811-84.11889,16.396-150.416,3.56433-181.78222-67.7229,81.26709,30.65356,101.22754,37.06945,186.772,59.88134C2937.75259,1652.16835,2826.37954,1548.598,2671.85147,1538.82179Zm101.22778,163.96033c-24.23779-8.55444-45.62378-14.73267-73.66357-25.66333-.54248-12.91431,28.09546-33.30395,53.91186-24.21655C2779.0253,1661.94765,2781.53189,1693.01869,2773.07925,1702.78212Zm-101.22778-163.96033c-116.43579-7.36633-214.14209,118.36048-198.17822,203.88123,19.96044,106.93066,226.69311,196.03955,373.54467,129.74243,4.75244-2.37622,19.21973-56.37463,19.96045-59.8811-84.11889,16.396-150.416,3.56433-181.78222-67.7229,81.26709,30.65356,101.22754,37.06945,186.772,59.88134C2937.75259,1652.16835,2826.37954,1548.598,2671.85147,1538.82179Zm101.22778,163.96033c-24.23779-8.55444-45.62378-14.73267-73.66357-25.66333-.54248-12.91431,28.09546-33.30395,53.91186-24.21655C2779.0253,1661.94765,2781.53189,1693.01869,2773.07925,1702.78212Zm-101.22778-163.96033c-116.43579-7.36633-214.14209,118.36048-198.17822,203.88123,19.96044,106.93066,226.69311,196.03955,373.54467,129.74243,4.75244-2.37622,19.21973-56.37463,19.96045-59.8811-84.11889,16.396-150.416,3.56433-181.78222-67.7229,81.26709,30.65356,101.22754,37.06945,186.772,59.88134C2937.75259,1652.16835,2826.37954,1548.598,2671.85147,1538.82179Zm101.22778,163.96033c-24.23779-8.55444-45.62378-14.73267-73.66357-25.66333-.54248-12.91431,28.09546-33.30395,53.91186-24.21655C2779.0253,1661.94765,2781.53189,1693.01869,2773.07925,1702.78212Zm-101.22778-163.96033c-116.43579-7.36633-214.14209,118.36048-198.17822,203.88123,19.96044,106.93066,226.69311,196.03955,373.54467,129.74243,4.75244-2.37622,19.21973-56.37463,19.96045-59.8811-84.11889,16.396-150.416,3.56433-181.78222-67.7229,81.26709,30.65356,101.22754,37.06945,186.772,59.88134C2937.75259,1652.16835,2826.37954,1548.598,2671.85147,1538.82179Zm101.22778,163.96033c-24.23779-8.55444-45.62378-14.73267-73.66357-25.66333-.54248-12.91431,28.09546-33.30395,53.91186-24.21655C2779.0253,1661.94765,2781.53189,1693.01869,2773.07925,1702.78212Zm-101.22778-163.96033c-116.43579-7.36633-214.14209,118.36048-198.17822,203.88123,19.96044,106.93066,226.69311,196.03955,373.54467,129.74243,4.75244-2.37622,19.21973-56.37463,19.96045-59.8811-84.11889,16.396-150.416,3.56433-181.78222-67.7229,81.26709,30.65356,101.22754,37.06945,186.772,59.88134C2937.75259,1652.16835,2826.37954,1548.598,2671.85147,1538.82179Zm101.22778,163.96033c-24.23779-8.55444-45.62378-14.73267-73.66357-25.66333-.54248-12.91431,28.09546-33.30395,53.91186-24.21655C2779.0253,1661.94765,2781.53189,1693.01869,2773.07925,1702.78212Zm-101.22778-163.96033c-116.43579-7.36633-214.14209,118.36048-198.17822,203.88123,19.96044,106.93066,226.69311,196.03955,373.54467,129.74243,4.75244-2.37622,19.21973-56.37463,19.96045-59.8811-84.11889,16.396-150.416,3.56433-181.78222-67.7229,81.26709,30.65356,101.22754,37.06945,186.772,59.88134C2937.75259,1652.16835,2826.37954,1548.598,2671.85147,1538.82179Zm101.22778,163.96033c-24.23779-8.55444-45.62378-14.73267-73.66357-25.66333-.54248-12.91431,28.09546-33.30395,53.91186-24.21655C2779.0253,1661.94765,2781.53189,1693.01869,2773.07925,1702.78212Zm-101.22778-163.96033c-116.43579-7.36633-214.14209,118.36048-198.17822,203.88123,19.96044,106.93066,226.69311,196.03955,373.54467,129.74243,4.75244-2.37622,19.21973-56.37463,19.96045-59.8811-84.11889,16.396-150.416,3.56433-181.78222-67.7229,81.26709,30.65356,101.22754,37.06945,186.772,59.88134C2937.75259,1652.16835,2826.37954,1548.598,2671.85147,1538.82179Zm101.22778,163.96033c-24.23779-8.55444-45.62378-14.73267-73.66357-25.66333-.54248-12.91431,28.09546-33.30395,53.91186-24.21655C2779.0253,1661.94765,2781.53189,1693.01869,2773.07925,1702.78212Zm-101.22778-163.96033c-116.43579-7.36633-214.14209,118.36048-198.17822,203.88123,19.96044,106.93066,226.69311,196.03955,373.54467,129.74243,4.75244-2.37622,19.21973-56.37463,19.96045-59.8811-84.11889,16.396-150.416,3.56433-181.78222-67.7229,81.26709,30.65356,101.22754,37.06945,186.772,59.88134C2937.75259,1652.16835,2826.37954,1548.598,2671.85147,1538.82179Zm101.22778,163.96033c-24.23779-8.55444-45.62378-14.73267-73.66357-25.66333-.54248-12.91431,28.09546-33.30395,53.91186-24.21655C2779.0253,1661.94765,2781.53189,1693.01869,2773.07925,1702.78212Zm-101.22778-163.96033c-116.43579-7.36633-214.14209,118.36048-198.17822,203.88123,19.96044,106.93066,226.69311,196.03955,373.54467,129.74243,4.75244-2.37622,19.21973-56.37463,19.96045-59.8811-84.11889,16.396-150.416,3.56433-181.78222-67.7229,81.26709,30.65356,101.22754,37.06945,186.772,59.88134C2937.75259,1652.16835,2826.37954,1548.598,2671.85147,1538.82179Zm101.22778,163.96033c-24.23779-8.55444-45.62378-14.73267-73.66357-25.66333-.54248-12.91431,28.09546-33.30395,53.91186-24.21655C2779.0253,1661.94765,2781.53189,1693.01869,2773.07925,1702.78212Zm-101.22778-163.96033c-116.43579-7.36633-214.14209,118.36048-198.17822,203.88123,19.96044,106.93066,226.69311,196.03955,373.54467,129.74243,4.75244-2.37622,19.21973-56.37463,19.96045-59.8811-84.11889,16.396-150.416,3.56433-181.78222-67.7229,81.26709,30.65356,101.22754,37.06945,186.772,59.88134C2937.75259,1652.16835,2826.37954,1548.598,2671.85147,1538.82179Zm101.22778,163.96033c-24.23779-8.55444-45.62378-14.73267-73.66357-25.66333-.54248-12.91431,28.09546-33.30395,53.91186-24.21655C2779.0253,1661.94765,2781.53189,1693.01869,2773.07925,1702.78212Zm-101.22778-163.96033c-116.43579-7.36633-214.14209,118.36048-198.17822,203.88123,19.96044,106.93066,226.69311,196.03955,373.54467,129.74243,4.75244-2.37622,19.21973-56.37463,19.96045-59.8811-84.11889,16.396-150.416,3.56433-181.78222-67.7229,81.26709,30.65356,101.22754,37.06945,186.772,59.88134C2937.75259,1652.16835,2826.37954,1548.598,2671.85147,1538.82179Zm101.22778,163.96033c-24.23779-8.55444-45.62378-14.73267-73.66357-25.66333-.54248-12.91431,28.09546-33.30395,53.91186-24.21655C2779.0253,1661.94765,2781.53189,1693.01869,2773.07925,1702.78212Zm-101.22778-163.96033c-116.43579-7.36633-214.14209,118.36048-198.17822,203.88123,19.96044,106.93066,226.69311,196.03955,373.54467,129.74243,4.75244-2.37622,19.21973-56.37463,19.96045-59.8811-84.11889,16.396-150.416,3.56433-181.78222-67.7229,81.26709,30.65356,101.22754,37.06945,186.772,59.88134C2937.75259,1652.16835,2826.37954,1548.598,2671.85147,1538.82179Zm101.22778,163.96033c-24.23779-8.55444-45.62378-14.73267-73.66357-25.66333-.54248-12.91431,28.09546-33.30395,53.91186-24.21655C2779.0253,1661.94765,2781.53189,1693.01869,2773.07925,1702.78212Zm-101.22778-163.96033c-116.43579-7.36633-214.14209,118.36048-198.17822,203.88123,19.96044,106.93066,226.69311,196.03955,373.54467,129.74243,4.75244-2.37622,19.21973-56.37463,19.96045-59.8811-84.11889,16.396-150.416,3.56433-181.78222-67.7229,81.26709,30.65356,101.22754,37.06945,186.772,59.88134C2937.75259,1652.16835,2826.37954,1548.598,2671.85147,1538.82179Zm101.22778,163.96033c-24.23779-8.55444-45.62378-14.73267-73.66357-25.66333-.54248-12.91431,28.09546-33.30395,53.91186-24.21655C2779.0253,1661.94765,2781.53189,1693.01869,2773.07925,1702.78212Zm-101.22778-163.96033c-116.43579-7.36633-214.14209,118.36048-198.17822,203.88123,19.96044,106.93066,226.69311,196.03955,373.54467,129.74243,4.75244-2.37622,19.21973-56.37463,19.96045-59.8811-84.11889,16.396-150.416,3.56433-181.78222-67.7229,81.26709,30.65356,101.22754,37.06945,186.772,59.88134C2937.75259,1652.16835,2826.37954,1548.598,2671.85147,1538.82179Zm101.22778,163.96033c-24.23779-8.55444-45.62378-14.73267-73.66357-25.66333-.54248-12.91431,28.09546-33.30395,53.91186-24.21655C2779.0253,1661.94765,2781.53189,1693.01869,2773.07925,1702.78212Zm-101.22778-163.96033c-116.43579-7.36633-214.14209,118.36048-198.17822,203.88123,19.96044,106.93066,226.69311,196.03955,373.54467,129.74243,4.75244-2.37622,19.21973-56.37463,19.96045-59.8811-84.11889,16.396-150.416,3.56433-181.78222-67.7229,81.26709,30.65356,101.22754,37.06945,186.772,59.88134C2937.75259,1652.16835,2826.37954,1548.598,2671.85147,1538.82179Zm101.22778,163.96033c-24.23779-8.55444-45.62378-14.73267-73.66357-25.66333-.54248-12.91431,28.09546-33.30395,53.91186-24.21655C2779.0253,1661.94765,2781.53189,1693.01869,2773.07925,1702.78212Zm-101.22778-163.96033c-116.43579-7.36633-214.14209,118.36048-198.17822,203.88123,19.96044,106.93066,226.69311,196.03955,373.54467,129.74243,4.75244-2.37622,19.21973-56.37463,19.96045-59.8811-84.11889,16.396-150.416,3.56433-181.78222-67.7229,81.26709,30.65356,101.22754,37.06945,186.772,59.88134C2937.75259,1652.16835,2826.37954,1548.598,2671.85147,1538.82179Zm101.22778,163.96033c-24.23779-8.55444-45.62378-14.73267-73.66357-25.66333-.54248-12.91431,28.09546-33.30395,53.91186-24.21655C2779.0253,1661.94765,2781.53189,1693.01869,2773.07925,1702.78212Zm-101.22778-163.96033c-116.43579-7.36633-214.14209,118.36048-198.17822,203.88123,19.96044,106.93066,226.69311,196.03955,373.54467,129.74243,4.75244-2.37622,19.21973-56.37463,19.96045-59.8811-84.11889,16.396-150.416,3.56433-181.78222-67.7229,81.26709,30.65356,101.22754,37.06945,186.772,59.88134C2937.75259,1652.16835,2826.37954,1548.598,2671.85147,1538.82179Zm101.22778,163.96033c-24.23779-8.55444-45.62378-14.73267-73.66357-25.66333-.54248-12.91431,28.09546-33.30395,53.91186-24.21655C2779.0253,1661.94765,2781.53189,1693.01869,2773.07925,1702.78212Zm-101.22778-163.96033c-116.43579-7.36633-214.14209,118.36048-198.17822,203.88123,19.96044,106.93066,226.69311,196.03955,373.54467,129.74243,4.75244-2.37622,19.21973-56.37463,19.96045-59.8811-84.11889,16.396-150.416,3.56433-181.78222-67.7229,81.26709,30.65356,101.22754,37.06945,186.772,59.88134C2937.75259,1652.16835,2826.37954,1548.598,2671.85147,1538.82179Zm101.22778,163.96033c-24.23779-8.55444-45.62378-14.73267-73.66357-25.66333-.54248-12.91431,28.09546-33.30395,53.91186-24.21655C2779.0253,1661.94765,2781.53189,1693.01869,2773.07925,1702.78212Zm-101.22778-163.96033c-116.43579-7.36633-214.14209,118.36048-198.17822,203.88123,19.96044,106.93066,226.69311,196.03955,373.54467,129.74243,4.75244-2.37622,19.21973-56.37463,19.96045-59.8811-84.11889,16.396-150.416,3.56433-181.78222-67.7229,81.26709,30.65356,101.22754,37.06945,186.772,59.88134C2937.75259,1652.16835,2826.37954,1548.598,2671.85147,1538.82179Zm101.22778,163.96033c-24.23779-8.55444-45.62378-14.73267-73.66357-25.66333-.54248-12.91431,28.09546-33.30395,53.91186-24.21655C2779.0253,1661.94765,2781.53189,1693.01869,2773.07925,1702.78212Zm-101.22778-163.96033c-116.43579-7.36633-214.14209,118.36048-198.17822,203.88123,19.96044,106.93066,226.69311,196.03955,373.54467,129.74243,4.75244-2.37622,19.21973-56.37463,19.96045-59.8811-84.11889,16.396-150.416,3.56433-181.78222-67.7229,81.26709,30.65356,101.22754,37.06945,186.772,59.88134C2937.75259,1652.16835,2826.37954,1548.598,2671.85147,1538.82179Zm101.22778,163.96033c-24.23779-8.55444-45.62378-14.73267-73.66357-25.66333-.54248-12.91431,28.09546-33.30395,53.91186-24.21655C2779.0253,1661.94765,2781.53189,1693.01869,2773.07925,1702.78212Z" transform="translate(-61.34916 -290.58981)"/></g></svg>